<svg width="999" height="797.25" xmlns="http://www.w3.org/2000/svg">
 <defs>
  <linearGradient y2="0.00005" x2="0.49985" y1="0.9999" x1="0.49985" id="c24143ca-a0c1-48a5-a3b5-0343775bf348">
   <stop stop-opacity="0.25" stop-color="gray" offset="0"/>
   <stop stop-opacity="0.12" stop-color="gray" offset="0.54"/>
   <stop stop-opacity="0.1" stop-color="gray" offset="1"/>
  </linearGradient>
 </defs>
 <title>press play</title>
 <g>
  <title>background</title>
  <rect fill="none" id="canvas_background" height="602" width="802" y="-1" x="-1"/>
 </g>
 <g>
  <title>Layer 1</title>
  <path id="svg_1" opacity="0.1" fill="#536dfe" d="m321.21,31.27c30.78,-27.43 79.11,-33 123.09,-30.84c138.16,6.87 262.87,73.56 370.74,149c39.05,27.31 77.5,56.74 102.85,94.35c51.6,76.57 36.3,182.63 -35.46,245.7c-24.41,21.46 -54,37.91 -84.39,52.5c-54,25.93 -112.31,46.74 -173.62,52.67c-43.73,4.22 -88,0.79 -131.46,-5.11c-121.46,-16.46 -240.65,-52.91 -340.56,-115.19c-43.82,-27.33 -85.13,-61.3 -103.19,-105.52s-6.5,-100.2 38.29,-126.4c18.51,-10.82 40.64,-15.71 62.3,-20.3c31.89,-6.76 64.29,-13.42 93.06,-27.15c29.72,-14.19 64.92,-41.63 59,-73c-6.36,-33.72 -11.36,-63.35 19.35,-90.71z"/>
  <circle id="svg_2" opacity="0.1" fill="#536dfe" r="31.5" cy="129.4" cx="174.08"/>
  <circle id="svg_3" opacity="0.1" fill="#536dfe" r="19.5" cy="54.4" cx="108.09"/>
  <circle id="svg_4" opacity="0.1" fill="#536dfe" r="12" cy="114.4" cx="925.57"/>
  <ellipse id="svg_5" opacity="0.1" fill="#536dfe" ry="8.4" rx="84.24" cy="788.85" cx="689.92"/>
  <polygon id="svg_6" fill="#5f5d7e" points="214 487.31 213.63 507.26 210.67 668.97 185.33 728.31 98 729.31 98 496.5 189.14 489.28 214 487.31"/>
  <polygon id="svg_7" opacity="0.1" points="214 487.31 213.63 507.26 210.67 668.97 185.33 728.31 98 729.31 98 496.5 189.14 489.28 214 487.31"/>
  <polygon id="svg_8" fill="#5f5d7e" points="214 487.31 213.63 507.26 210.67 668.97 185.33 728.31 192 507.64 191.98 507.5 189.14 489.28 214 487.31"/>
  <polygon id="svg_9" opacity="0.1" points="189.14 489.28 214 487.31 213.63 507.26 191.98 507.5 98 508.55 98 496.5 189.14 489.28"/>
  <polygon id="svg_10" fill="#5f5d7e" points="999 496.5 999 727.97 978.67 727.97 897.33 668.64 897.33 489.97 970 483.14 974.46 485.19 978.67 487.13 999 496.5"/>
  <rect id="svg_11" opacity="0.1" height="242.78" width="20.33" y="485.19" x="978.67"/>
  <polygon id="svg_12" opacity="0.1" points="999 485.19 999 498.5 978.67 498.73 897.33 499.63 897.33 489.97 970 483.14 974.46 485.19 978.67 487.13 978.67 485.19 999 485.19"/>
  <polygon id="svg_13" fill="#5f5d7e" points="999 477.64 999 496.5 0 507.64 0 483.64 94 464.64 912 458.64 999 477.64"/>
  <polygon id="svg_14" opacity="0.1" points="999 477.64 999 496.5 0 507.64 0 483.64 999 477.64"/>
  <rect id="svg_15" fill="#474157" ry="22.82" rx="22.82" height="271.69" width="349.92" y="194.97" x="365.5"/>
  <rect id="svg_16" fill="#d9d9e0" height="221.63" width="294.12" y="217.48" x="393.66"/>
  <circle id="svg_17" fill="#e6e8ec" r="4.82" cy="330.29" cx="382.18"/>
  <circle id="svg_18" fill="#e6e8ec" r="7.95" cy="330.81" cx="700.81"/>
  <path id="svg_20" fill="url(#c24143ca-a0c1-48a5-a3b5-0343775bf348)" d="m803.88,509.14a12.5,12.5 0 0 0 -1.13,-3.52c0.76,-2.59 1.25,-4.18 1.25,-4.18s0,-0.38 -0.12,-1a15.35,15.35 0 0 0 -15.55,-12.88c-6,0.11 -17.38,0.51 -30,1.93c0.72,-5.05 1.58,-11.09 2.48,-17.31l1.65,0.18c0.38,0 0.78,0 1.18,0.06l0.53,0a5.44,5.44 0 0 0 3.66,-1.12a2.16,2.16 0 0 0 -0.67,-3.54a8.92,8.92 0 0 0 7.83,-3.28a7,7 0 0 0 0,-8.14c-2.11,-3 -6.58,-5 -6.82,-8.53c-0.13,-2 1.21,-3.8 2.26,-5.57a23.27,23.27 0 0 0 -3.67,-27.95a54.76,54.76 0 0 0 -4.44,-3.95c-2.2,-8.08 -4.5,-15.3 -5.18,-15.53c-0.88,-0.29 -2.39,-2.19 -3.83,-3.82a18.4,18.4 0 0 0 -0.07,-4.13c-1.06,-7 -8,-12 -11.82,-18.18s-4.51,-13.75 -3.53,-20.83s3.45,-13.93 5.46,-20.84c1.5,-5.13 2.75,-10.58 1.07,-15.67c-1.19,-3.63 -3.78,-6.77 -6.45,-9.72c-6.41,-7.09 -13.8,-13.73 -22.92,-18a45.55,45.55 0 0 0 -20.29,-4.34l-0.07,0l-1.1,0.06l-0.78,0.05l-0.78,0.08l-0.83,0.08l0,0c-0.85,0.11 -1.69,0.24 -2.53,0.41a87.31,87.31 0 0 0 -18.55,-2.08l-0.81,0a9.5,9.5 0 0 0 -5.3,1.25c-2.22,1.55 -2.5,4.33 -3.17,6.75a18.73,18.73 0 0 1 -7.2,10c-2.39,1.72 -5.2,3 -7.48,4.8s-4.06,4.5 -3.45,7.16c0.51,2.23 2.59,3.89 5,4.9c-0.29,0.36 -0.59,0.71 -0.87,1.08c0.47,0.19 1,0.36 1.43,0.5c3,0.89 6.23,1 9.27,1.81a20.31,20.31 0 0 1 2.46,0.83a35.12,35.12 0 0 0 -4.11,16.52a35.59,35.59 0 0 0 18.62,31.22c0,0.34 0,0.67 0,1c0.31,10.44 -0.48,23.14 -5.82,25.29s-10.45,4.58 -13.6,6.15l-1,0.53c-0.83,-0.38 -1.66,-0.78 -2.47,-1.2c0,0 -4.25,-0.5 -3.51,2.74c0,0 -12.85,-2 -19.9,3.49s-18.62,16.95 -20.89,19.94s-19.82,9.53 -19.82,9.53s5.53,-7.73 3.14,-17.2c0,0 -2.64,-11.42 -1.38,-16s4.53,-21.58 4.53,-21.58s0.46,-17.94 -9.33,-26.17s-16.6,-15 -12.82,-7a111.46,111.46 0 0 0 5.54,10.71s-23.41,5.56 -15.1,14.24s10.57,8.69 10.57,8.69s-2.77,21.43 -3.28,25.42s-5,34.39 -5,34.39s-0.25,14.46 2.27,16.7c0,0 1.65,9.31 12.08,9c0,0 19.88,-0.5 25.42,-2.74s24.66,-14.21 26.68,-13.46a1.15,1.15 0 0 1 0.39,0.26a2.83,2.83 0 0 1 0.3,0.3c-2,4.43 -6.74,19.47 -4.72,26.86c0,0 -1.76,20.93 8.81,27.66c0,0 15.35,25.92 9.56,39.87c-0.46,1.13 -0.87,2.17 -1.25,3.18c-8.79,-7.29 -22.2,-14 -42.68,-17.71c-2.09,-0.38 -4.17,-0.84 -6.23,-1.34c-5.82,-1.41 -21.83,-2.7 -29.45,22.61a111.36,111.36 0 0 1 -6.76,17.12c-3,6.07 -6.33,14.77 -6.4,23.4c-0.17,12.1 6.08,24.09 28.76,28.49c0.25,9 1.28,19.72 4.36,27.43c6.29,15.7 16.36,41.12 16.36,41.12s12.08,25.92 12.84,36.38c0.49,6.85 1.21,15.83 0.71,22c0,0.38 -0.06,0.74 -0.1,1.1a26.52,26.52 0 0 1 -3.38,3.07c-1.76,1 -7.55,7.23 -7.55,8.72a26.64,26.64 0 0 0 0.38,4.26c-2.74,2.39 -4.24,5 -4.24,7.6c0,13.52 38.37,24.48 85.7,24.48s85.69,-11 85.69,-24.48c0,-12.34 -32,-22.54 -73.58,-24.22c8.67,-3.46 16.37,-7.09 19.56,-10a4.68,4.68 0 0 0 1.51,-2.06l-8.05,-18.69s-0.63,0.14 -1.56,0.41l-0.56,-0.84c-3.58,-5.45 -10.47,-16.31 -10.47,-19.26c0,-1.09 -1.82,-8.06 -4.46,-17.61l0,-30.65c26.26,4 60.1,-1.44 60.1,-1.44l0.15,-0.08l0.66,0l0,-0.36c4.55,-2.52 27.31,-15.85 34.06,-33.53c2,-5.16 -0.49,-12.55 -5.44,-20.45c3.46,-8.59 12,-30.78 11.15,-39.63c0,-0.47 -0.06,-1 -0.06,-1.52a26.12,26.12 0 0 0 0.1,-2.72c1,-13 9,-36.75 9,-36.75s-0.05,-0.41 -0.15,-1.01zm-170,-57.76c1.82,3.2 3.77,7.29 4.54,8.95l0,0s-2.66,-4.9 -4.49,-8.95l-0.05,0zm1.9,280.1l-0.19,0.07l0,-1a59.38,59.38 0 0 1 0.19,-7.82a9.16,9.16 0 0 0 -0.86,-4.06a96,96 0 0 1 -6.13,-24.13c-1,-8.72 -1.83,-18.23 -1.31,-20.65c0.78,-3.71 1.42,-31.81 0.45,-45.66l15.48,3.48l18,36.7s11.58,17.92 15.17,32.06l0,14.16a34.6,34.6 0 0 1 -5.41,11.74c-2.39,3.27 -4.72,6.58 -6.88,10c-0.66,1.06 -1.39,2.15 -2.12,3.17c-0.24,0 -12.07,0.69 -14.08,2.91c-1.24,1.37 -3.4,3.53 -3.76,5.7l-0.51,0.08c-2.32,-6.91 -7.99,-16.75 -7.99,-16.75l-0.05,0z"/>
  <path id="svg_21" opacity="0.1" d="m711.93,718.63l-4,13l-17,14.75l-25,7.18s-11.75,-6.43 -7.75,-7.68c1.11,-0.35 2.43,-1.62 3.77,-3.28c-1.4,5.1 9.73,-1.47 9.73,-1.47s28.75,-20.5 31.75,-22.75a22.61,22.61 0 0 1 6.4,-2.93c1.25,1.95 2.1,3.18 2.1,3.18z"/>
  <path id="svg_22" fill="#fdc2cc" d="m711.93,718.63l-4,13l-17,14.75l-25,7.18s-11.75,-6.43 -7.75,-7.68c1.11,-0.35 2.43,-1.62 3.77,-3.28a50,50 0 0 0 3.34,-4.82c2.14,-3.44 4.46,-6.76 6.83,-10a36,36 0 0 0 6.31,-16.61c1.75,-13.75 -16,-41.5 -16,-41.5l-32.25,-66.25l45,5.5s24.25,83.25 24.25,87.25c0,3 6.84,13.85 10.4,19.32c1.25,1.91 2.1,3.14 2.1,3.14z"/>
  <ellipse id="svg_23" fill="#5f5d7e" ry="24.55" rx="85.12" cy="771.05" cx="686.97"/>
  <path id="svg_24" fill="#536dfe" d="m719.93,734.63a4.8,4.8 0 0 1 -1.5,2.07c-6.18,5.67 -29.29,14.1 -43.57,18.68a101.11,101.11 0 0 1 -11.43,3.25c-3.5,0.25 -10.75,-2 -15.75,-5.07s-0.5,-7.43 1.52,-9.68s14,-2.92 14,-2.92c-5.75,9.57 8.49,1.17 8.49,1.17s28.75,-20.5 31.75,-22.75s8.5,-3.5 8.5,-3.5l7.99,18.75z"/>
  <path id="svg_25" opacity="0.3" d="m719.93,734.63a4.8,4.8 0 0 1 -1.5,2.07c-6.18,5.67 -29.29,14.1 -43.57,18.68a101.11,101.11 0 0 1 -11.43,3.25c-3.5,0.25 -10.75,-2 -15.75,-5.07s-0.5,-7.43 1.52,-9.68s14,-2.92 14,-2.92c-5.75,9.57 8.49,1.17 8.49,1.17s28.75,-20.5 31.75,-22.75s8.5,-3.5 8.5,-3.5l7.99,18.75z"/>
  <path id="svg_26" opacity="0.1" d="m718.43,736.72c-6.18,5.67 -29.29,14.1 -43.57,18.68c12.94,-10.96 34.64,-16.69 43.57,-18.68z"/>
  <ellipse id="svg_27" opacity="0.1" ry="4.91" rx="17.03" cy="763.14" cx="686.97"/>
  <rect id="svg_28" fill="#5f5d7e" height="129.5" width="17.5" y="633.64" x="677.5"/>
  <path id="svg_29" opacity="0.1" d="m695,640.06l0,15c-3.5,-1.08 -11.49,-5.63 -17.5,-9.21l0,-12.22l3.65,0l13.85,6.43z"/>
  <path id="svg_30" fill="#474157" d="m653.77,577.26s57.78,-14.87 72.16,-26s70.85,41.24 63.39,61s-34.62,34.07 -34.62,34.07s-75.11,12.22 -87.9,-13.27s-13.03,-55.8 -13.03,-55.8z"/>
  <path id="svg_31" opacity="0.1" d="m653.77,577.26s57.78,-14.87 72.16,-26s70.85,41.24 63.39,61s-34.62,34.07 -34.62,34.07s-75.11,12.22 -87.9,-13.27s-13.03,-55.8 -13.03,-55.8z"/>
  <path id="svg_32" fill="#474157" d="m648.77,571.26s57.78,-14.87 72.16,-26s70.85,41.24 63.39,61s-34.62,34.07 -34.62,34.07s-75.11,12.22 -87.9,-13.27s-13.03,-55.8 -13.03,-55.8z"/>
  <path id="svg_33" fill="#fdc2cc" d="m595.18,434.9l-6.25,-2.27s5.5,-7.75 3.13,-17.25c0,0 -2.63,-11.46 -1.38,-16.1s4.5,-21.65 4.5,-21.65s0.46,-18 -9.27,-26.25s-16.48,-15 -12.73,-7a111.4,111.4 0 0 0 5.5,10.75s-23.25,5.57 -15,14.29s10.5,8.71 10.5,8.71s-2.75,21.5 -3.25,25.5s-5,34.5 -5,34.5s-0.25,14.5 2.25,16.75a11.31,11.31 0 0 0 12,9c1.78,-0.03 23,-23.48 15,-28.98z"/>
  <path id="svg_34" fill="#fdc2cc" d="m746.18,388.9l0,14l-14.5,4.73l-24.7,18.18l-6.55,4.82l-29.25,-11.75l-18.5,-19.5s0.9,-0.49 2.46,-1.3l1,-0.53c3.13,-1.57 8.06,-4 13.51,-6.17s6.09,-14.89 5.78,-25.37l0,-1c-0.25,-7.35 -1,-13.36 -1,-13.36s3.05,-0.58 7.49,-1.24c12.31,-1.83 35.28,-4.3 33.26,3.24a17.37,17.37 0 0 0 0,7.79c0.06,0.28 0.12,0.57 0.19,0.85c2.08,9.09 8.52,18.61 8.52,18.61l20,7.2l0.56,0.2l1.73,0.6z"/>
  <path id="svg_35" fill="#fdc2cc" d="m746.18,393.15l0,-4.25a14,14 0 0 1 4.75,0c1.75,0.5 5.07,5.75 6.57,6.25s10.68,34.75 9.68,37.75s-10.45,70.73 -10.45,70.73l-19.05,21l-3.75,-57.75l12.25,-34.25l0,-39.48z"/>
  <path id="svg_36" fill="#fdc2cc" d="m647.43,550.4s-17.41,3.75 -15.2,9.25s11.95,5.75 11.95,5.75l3.25,-15z"/>
  <path id="svg_37" fill="#fdc2cc" d="m671.68,439.35l-13.25,28.55l-15.75,11.5l-2.75,-17.77s-5.32,-11.75 -7.61,-13.74a1.15,1.15 0 0 0 -0.39,-0.26c-2,-0.75 -21,11.25 -26.5,13.5s-25.25,2.75 -25.25,2.75l8.75,-31.25s17.5,-6.5 19.75,-9.5s13.75,-14.5 20.75,-20s19.77,-3.5 19.77,-3.5l0.2,0.08l3.28,1.42l9.5,23.25l9.5,14.97z"/>
  <path id="svg_38" fill="#fdc2cc" d="m636.93,724.15a59.64,59.64 0 0 0 -0.19,7.84c0.07,2.79 0.19,5.16 0.19,5.16l-5.75,12s-19.75,6.5 -16.5,3.75c1.13,-0.95 1.71,-3.42 2,-6.69c0.49,-6.18 -0.22,-15.19 -0.71,-22.06c-0.75,-10.5 -12.75,-36.5 -12.75,-36.5s-10,-25.5 -16.25,-41.25s-4,-44.25 -4,-44.25s1,-21.5 5.5,-28s22,-8.75 22,-8.75l8.21,27.23s6.75,25.5 9.25,29.25s1.75,48.5 0.75,53.25c-0.51,2.43 0.35,12 1.31,20.72a97.31,97.31 0 0 0 6.08,24.2a9.24,9.24 0 0 1 0.86,4.1z"/>
  <path id="svg_39" opacity="0.1" d="m636.93,737.15l-5.75,12s-19.75,6.5 -16.5,3.75c1.13,-0.95 1.71,-3.42 2,-6.69c0.71,-0.71 1.47,-1.49 2.25,-2.29a50.49,50.49 0 0 1 17.85,-11.93l0,0c0.03,2.79 0.15,5.16 0.15,5.16z"/>
  <path id="svg_40" fill="#536dfe" d="m645.95,755.01a0.59,0.59 0 0 1 0,0.14c-1,4.75 -17.5,11.25 -17.5,11.25s-10.5,1.75 -16.5,3.25a4.15,4.15 0 0 1 -1.41,0.13c-4.63,-0.35 -4.84,-9.26 -4.84,-10.63s5.75,-7.75 7.5,-8.75a53.63,53.63 0 0 0 5.56,-5.33a51.6,51.6 0 0 1 18.22,-12.17l0,0s9.77,17.18 8.97,22.11z"/>
  <path id="svg_41" opacity="0.3" d="m645.95,755.01a0.59,0.59 0 0 1 0,0.14c-1,4.75 -17.5,11.25 -17.5,11.25s-10.5,1.75 -16.5,3.25a4.15,4.15 0 0 1 -1.41,0.13c-4.63,-0.35 -4.84,-9.26 -4.84,-10.63s5.75,-7.75 7.5,-8.75a53,53 0 0 0 5.64,-5.41a50.57,50.57 0 0 1 17.86,-12l0.28,-0.11s9.77,17.2 8.97,22.13z"/>
  <path id="svg_42" opacity="0.1" d="m645.95,755.01a0.59,0.59 0 0 1 0,0.14c-1,4.75 -17.5,11.25 -17.5,11.25s-10.5,1.75 -16.5,3.25a4.15,4.15 0 0 1 -1.41,0.13c5.44,-3.73 18.63,-12.68 20.41,-12.88s10.55,-2.72 15,-1.89z"/>
  <path id="svg_43" opacity="0.1" d="m715.41,362.29c-6.18,5.09 -11.86,4.36 -20.49,4.36c-6.24,0 -14.35,2.19 -19.46,-0.62c-0.21,-7.81 -1,-14.38 -1,-14.38s43.5,-8.25 40.75,2a18.18,18.18 0 0 0 0.2,8.64z"/>
  <path id="svg_44" fill="#fdc2cc" d="m728.43,333.69a35.75,35.75 0 0 1 -35.75,35.75c-0.92,0 -1.84,0 -2.74,-0.1l0,0a35.75,35.75 0 1 1 38.5,-35.65l-0.01,0z"/>
  <path id="svg_45" opacity="0.1" d="m662.18,424.4l9.5,15l-13.25,28.55l-15.75,11.5l-2.75,-17.82s-5.32,-11.75 -7.61,-13.74c0.66,-1.61 1.11,-2.35 1.11,-1.76c0,2.5 6.15,13.75 6.15,13.75c19,-6.5 13.1,-31.75 13.1,-31.75s-2.36,-22.5 -3.28,-28.42l3.28,1.42l9.5,23.27z"/>
  <path id="svg_46" opacity="0.1" d="m746.18,388.9l0,14l-14.5,4.73l-24.7,18.18l-6.55,4.82l-29.25,-11.75l-18.5,-19.5s0.9,-0.49 2.46,-1.3l1,-0.53c12.87,5.85 26.8,8 36.75,8.77a111,111 0 0 0 13.76,0.31c37.67,-6 38.79,-15.1 37.85,-18.33l1.68,0.6z"/>
  <path id="svg_47" fill="#536dfe" d="m756.93,615.63a280.29,280.29 0 0 1 -29,12.25c-17.25,6.25 -55.25,-2 -60,-3.25s-41.25,-15.75 -55.25,-21.25s-17.5,-1 -20.75,-1.5s-5.5,-6.75 -6,-8.5s9,-17 14.25,-24.75s21,-6.25 23.25,-6.75s18,0 18,0s-1,-5 4.75,-19s-9.5,-40 -9.5,-40c-10.5,-6.75 -8.75,-27.75 -8.75,-27.75c-2.5,-9.25 5.5,-30.5 5.5,-28s6.15,13.75 6.15,13.75c19,-6.5 13.1,-31.75 13.1,-31.75s-2.75,-26.25 -3.48,-29.5s3.48,-2.75 3.48,-2.75q1.22,0.63 2.46,1.2c13.16,6.2 27.56,8.46 37.78,9.24a111,111 0 0 0 13.76,0.31c45.67,-7.37 37.58,-19.12 37.28,-19.54l2.22,0.79c16.5,12 11.5,51.75 11.5,51.75l-6.18,29.67l-4.59,22.1s16.25,98.5 17.75,103.5s-7.73,19.73 -7.73,19.73z"/>
  <path id="svg_48" opacity="0.1" d="m635.18,570.63c-1,0.75 -12.25,24 -4,30.5s4,-30.5 4,-30.5z"/>
  <path id="svg_49" opacity="0.1" d="m643.18,573.9c0.25,0.75 23.5,37.75 36.25,40.75l-36.25,-40.75z"/>
  <path id="svg_50" opacity="0.1" d="m699.19,281.11l-3.72,0.79a25.07,25.07 0 0 1 3.14,-0.93l0.58,0.14z"/>
  <path id="svg_51" opacity="0.1" d="m755.21,440.63l-7,29.65a36.22,36.22 0 0 1 -9.72,-6.51c-2.23,-2.12 -4.23,-4.55 -7.1,-5.94c-3.69,-1.79 -8.14,-1.55 -12.33,-1.7a59.32,59.32 0 0 1 -15.42,-2.64a10.88,10.88 0 0 1 -4,-1.94c-2.38,-2.1 -2.22,-5.49 -2,-8.45a129.57,129.57 0 0 0 0.15,-17.29c-0.06,-1.08 -0.14,-2.16 -0.23,-3.24c-0.4,-4.83 -1.7,-10.43 -6.64,-12.5c-2.54,-1 -5.57,-0.92 -8,-2.13a6.61,6.61 0 0 1 -1,-0.62c-3.6,-2.52 -3.93,-7.57 -3.79,-11.82q0.32,-8.76 0.61,-17.53a50.94,50.94 0 0 0 -0.19,-8.65l0,0a19.21,19.21 0 0 0 -1.56,-5.52c-2.17,-4.64 -6.69,-8.51 -7.5,-13.41a5.43,5.43 0 0 1 -0.09,-0.69c-0.42,-4.38 2.34,-8.46 3.31,-12.77c1.94,-8.67 -4.58,-18.17 -14.17,-20.66c-3,-0.78 -6.22,-0.93 -9.21,-1.82a14.79,14.79 0 0 1 -1.41,-0.5c7.24,-9.66 19.65,-16 33.74,-16c22.33,0 40.44,16 40.44,35.75c0,11.2 -5.83,21.19 -14.94,27.75c0.06,0.28 0.13,0.57 0.21,0.85c2.35,9.09 9.64,18.61 9.64,18.61l22.64,7.2l2.52,0.8c18.7,11.99 13.04,51.72 13.04,51.72z"/>
  <path id="svg_52" opacity="0.1" d="m767.5,469.35c-0.22,0 -0.43,-0.05 -0.64,-0.09a1.33,1.33 0 0 1 0.64,0.09z"/>
  <path id="svg_53" fill="#474157" d="m690.18,280.12a86,86 0 0 0 -19.08,-2.23c-2.09,0 -4.33,0.11 -6,1.26c-2.21,1.55 -2.49,4.35 -3.15,6.77a18.78,18.78 0 0 1 -7.15,10c-2.37,1.73 -5.16,3 -7.43,4.82s-4,4.52 -3.43,7.18s3.56,4.71 6.56,5.56s6.19,1 9.21,1.82c9.59,2.49 16.1,12 14.16,20.65c-1,4.31 -3.73,8.39 -3.31,12.77c0.49,5.23 5.32,9.26 7.59,14.11c2.07,4.42 1.93,9.38 1.77,14.16l-0.61,17.54c-0.16,4.62 0.24,10.18 4.8,12.44c2.44,1.2 5.48,1.07 8,2.13c4.94,2.06 6.24,7.67 6.64,12.49a129.1,129.1 0 0 1 0.08,20.53c-0.23,3 -0.39,6.35 2,8.45a10.72,10.72 0 0 0 4,1.94a59.32,59.32 0 0 0 15.42,2.64c4.2,0.16 8.64,-0.08 12.33,1.7c2.87,1.39 4.87,3.83 7.1,5.94a39.24,39.24 0 0 0 23.18,10.15c1.85,0.16 3.95,0.12 5.24,-1.07s0.53,-3.76 -1.31,-3.61a8.89,8.89 0 0 0 8.42,-3.22a7.1,7.1 0 0 0 0,-8.17c-2.09,-3 -6.53,-5 -6.77,-8.56c-0.13,-2 1.2,-3.81 2.24,-5.59a23.51,23.51 0 0 0 -3.64,-28c-4.69,-4.85 -11.72,-8.53 -13.36,-14.75c-1.09,-4.16 0.56,-8.53 -0.07,-12.76c-1,-7 -7.93,-12 -11.74,-18.24s-4.48,-13.79 -3.51,-20.89s3.43,-14 5.43,-20.9c1.49,-5.15 2.72,-10.62 1.06,-15.73c-1.19,-3.63 -3.75,-6.78 -6.41,-9.75c-6.37,-7.11 -13.7,-13.77 -22.76,-18s-20.1,-5.87 -29.72,-2.74"/>
  <path id="svg_54" opacity="0.1" d="m690.18,280.12a86,86 0 0 0 -19.08,-2.23c-2.09,0 -4.33,0.11 -6,1.26c-2.21,1.55 -2.49,4.35 -3.15,6.77a18.78,18.78 0 0 1 -7.15,10c-2.37,1.73 -5.16,3 -7.43,4.82s-4,4.52 -3.43,7.18s3.56,4.71 6.56,5.56s6.19,1 9.21,1.82c9.59,2.49 16.1,12 14.16,20.65c-1,4.31 -3.73,8.39 -3.31,12.77c0.49,5.23 5.32,9.26 7.59,14.11c2.07,4.42 1.93,9.38 1.77,14.16l-0.61,17.54c-0.16,4.62 0.24,10.18 4.8,12.44c2.44,1.2 5.48,1.07 8,2.13c4.94,2.06 6.24,7.67 6.64,12.49a129.1,129.1 0 0 1 0.08,20.53c-0.23,3 -0.39,6.35 2,8.45a10.72,10.72 0 0 0 4,1.94a59.32,59.32 0 0 0 15.42,2.64c4.2,0.16 8.64,-0.08 12.33,1.7c2.87,1.39 4.87,3.83 7.1,5.94a39.24,39.24 0 0 0 23.18,10.15c1.85,0.16 3.95,0.12 5.24,-1.07s0.53,-3.76 -1.31,-3.61a8.89,8.89 0 0 0 8.42,-3.22a7.1,7.1 0 0 0 0,-8.17c-2.09,-3 -6.53,-5 -6.77,-8.56c-0.13,-2 1.2,-3.81 2.24,-5.59a23.51,23.51 0 0 0 -3.64,-28c-4.69,-4.85 -11.72,-8.53 -13.36,-14.75c-1.09,-4.16 0.56,-8.53 -0.07,-12.76c-1,-7 -7.93,-12 -11.74,-18.24s-4.48,-13.79 -3.51,-20.89s3.43,-14 5.43,-20.9c1.49,-5.15 2.72,-10.62 1.06,-15.73c-1.19,-3.63 -3.75,-6.78 -6.41,-9.75c-6.37,-7.11 -13.7,-13.77 -22.76,-18s-20.1,-5.87 -29.72,-2.74"/>
  <path id="svg_55" opacity="0.1" d="m636.68,502.9s8.5,3.25 17.5,-5.75s-17.5,5.75 -17.5,5.75z"/>
  <g id="svg_56" opacity="0.1">
   <path id="svg_57" d="m693.94,279.97a35.56,35.56 0 0 1 5,-0.63a37.93,37.93 0 0 0 -7,0.22l2,0.41z"/>
   <path id="svg_58" d="m744.08,462.79c-2.24,-2.11 -4.23,-4.55 -7.11,-5.94c-3.68,-1.78 -8.13,-1.54 -12.33,-1.7a59,59 0 0 1 -15.42,-2.64a10.72,10.72 0 0 1 -4,-1.94c-2.38,-2.1 -2.21,-5.48 -2,-8.45a129.1,129.1 0 0 0 -0.08,-20.53c-0.41,-4.82 -1.7,-10.43 -6.65,-12.49c-2.53,-1.06 -5.56,-0.93 -8,-2.13c-4.56,-2.26 -5,-7.82 -4.81,-12.44q0.31,-8.77 0.61,-17.53c0.17,-4.79 0.3,-9.75 -1.77,-14.17c-2.27,-4.85 -7.1,-8.87 -7.59,-14.11c-0.41,-4.37 2.35,-8.46 3.32,-12.77c1.94,-8.67 -4.58,-18.16 -14.17,-20.65c-3,-0.78 -6.22,-0.94 -9.21,-1.82s-5.89,-2.78 -6.51,-5.5s1.15,-5.36 3.42,-7.19s5.06,-3.09 7.44,-4.82a18.71,18.71 0 0 0 7.14,-10c0.67,-2.42 1,-5.21 3.15,-6.77a8,8 0 0 1 4.1,-1.2c-0.89,0 -1.78,-0.05 -2.66,-0.05c-2.09,0 -4.33,0.11 -6,1.25c-2.21,1.56 -2.49,4.35 -3.15,6.77a18.78,18.78 0 0 1 -7.15,10c-2.37,1.73 -5.16,3 -7.43,4.82s-4,4.52 -3.43,7.19s3.53,4.61 6.52,5.5s6.19,1 9.21,1.82c9.59,2.49 16.1,12 14.16,20.65c-1,4.31 -3.73,8.4 -3.31,12.77c0.49,5.24 5.32,9.26 7.59,14.11c2.07,4.42 1.94,9.38 1.77,14.17q-0.31,8.76 -0.61,17.53c-0.16,4.62 0.24,10.18 4.8,12.44c2.44,1.2 5.48,1.07 8,2.13c4.94,2.06 6.24,7.67 6.64,12.49a129.1,129.1 0 0 1 0.08,20.53c-0.23,3 -0.39,6.35 2,8.45a10.72,10.72 0 0 0 4,1.94a58.91,58.91 0 0 0 15.42,2.64c4.2,0.16 8.64,-0.08 12.33,1.7c2.87,1.39 4.87,3.83 7.11,5.94a39.18,39.18 0 0 0 23.17,10.15a10.71,10.71 0 0 0 3.35,-0.13a39.11,39.11 0 0 1 -21.94,-10.02z"/>
  </g>
  <path id="svg_59" opacity="0.1" d="m588.93,432.63s-8,7.34 -6.83,10.34s6.83,-10.34 6.83,-10.34z"/>
  <path id="svg_60" fill="#474157" d="m596.35,526.98c-5.77,-1.41 -21.68,-2.71 -29.25,22.68a112.32,112.32 0 0 1 -6.71,17.17c-7.26,14.91 -16.64,45.57 24.61,52.32l99,22.5s53,6.5 56.5,4s3,-8 3,-8s-58.5,0 -70,-18s-12,-42.5 -12,-42.5s1.44,-37.83 -59,-48.82c-2,-0.38 -4.1,-0.85 -6.15,-1.35z"/>
  <path id="svg_61" opacity="0.1" d="m596.35,527.15c-5.77,-1.41 -21.68,-2.71 -29.25,22.69a112.32,112.32 0 0 1 -6.71,17.17c-7.26,14.9 -16.64,45.56 24.61,52.31l99,22.5s53,6.5 56.5,4s3,-8 3,-8s-58.5,0 -70,-18s-12,-42.5 -12,-42.5s1.44,-37.83 -59,-48.82c-2,-0.38 -4.1,-0.87 -6.15,-1.35z"/>
  <path id="svg_62" fill="#474157" d="m803.88,501.11a15.29,15.29 0 0 0 -15.45,-12.92c-14.24,0.26 -58.07,2.16 -78.43,15.46c0,0 -15.5,10 -20,10s-65.5,52 25,98.5c0,0 48.5,13.8 67.5,-18.6c0,0 13.5,-34.8 12.5,-46.85s9,-44.55 9,-44.55s-0.02,-0.39 -0.12,-1.04z"/>
  <path id="svg_63" opacity="0.1" d="m803.88,509.87c-1.14,-7 -7.8,-12.06 -15.45,-11.93c-14.24,0.24 -58.07,2 -78.43,14.27c0,0 -15.5,9.23 -20,9.23s-65.5,48 25,90.93c0,0 48.5,12.74 67.5,-17.17c0,0 13.5,-32.13 12.5,-43.25s9,-41.12 9,-41.12s-0.02,-0.36 -0.12,-0.96z"/>
  <rect id="svg_64" fill="#5f5d7e" height="34.07" width="16" y="612.14" x="739.5"/>
  <ellipse id="svg_65" opacity="0.1" ry="2.89" rx="45.04" cy="470.71" cx="170.24"/>
  <path id="svg_66" fill="#536dfe" d="m208.04,359.25a17.18,17.18 0 0 0 -2.28,4.29c-0.14,0.38 -0.28,0.8 -0.42,1.21a3.69,3.69 0 0 0 -0.79,-0.27a11.34,11.34 0 0 0 -3.57,-0.31c0,-0.46 0.06,-1 0.07,-1.46c0.15,-5.27 -0.47,-12.62 -5.5,-9.51c-4.82,3 -1.38,8 1.73,11.21l0.8,0.78c-2.84,2 -3.38,6.73 -3.85,11.64s-4.64,10.29 -7.41,13.34c-0.28,0.31 -0.53,0.59 -0.78,0.85a10.11,10.11 0 0 0 -8.05,-2.07c-0.11,-0.43 -0.24,-0.88 -0.37,-1.36c-2.24,-8.08 -6.89,-22.09 -12.82,-25.16l0.78,-1c2.52,-3.3 5.36,-8.19 1.17,-9.45s-4.57,4.25 -4.34,8.37c0,0.52 0.08,1 0.12,1.46a6.17,6.17 0 0 0 -4.38,2.14l-0.65,-0.76c-3.4,-4 -9.63,-10.37 -11.52,-5.56c-1.76,4.48 3.73,10.29 7.59,13.66l0.24,0.21c-2.59,10.53 8.69,19.13 14.81,22.85l0.79,0.48c-8.4,9.9 -13.59,28.45 -13.59,28.45l23.52,4.2s15.6,-13.45 13.6,-26.09l0.16,0c15.59,-3.12 19.13,-19.74 16.7,-29.61l0.28,-0.11a17.74,17.74 0 0 0 7.22,-5.46c4.36,-6.07 -4.8,-12.91 -9.26,-6.96z"/>
  <path id="svg_67" opacity="0.1" d="m208.04,359.25a17.18,17.18 0 0 0 -2.28,4.29c-0.14,0.38 -0.28,0.8 -0.42,1.21a3.69,3.69 0 0 0 -0.79,-0.27a11.34,11.34 0 0 0 -3.57,-0.31c0,-0.46 0.06,-1 0.07,-1.46c0.15,-5.27 -0.47,-12.62 -5.5,-9.51c-4.82,3 -1.38,8 1.73,11.21l0.8,0.78c-2.84,2 -3.38,6.73 -3.85,11.64s-4.64,10.29 -7.41,13.34c-0.28,0.31 -0.53,0.59 -0.78,0.85a10.11,10.11 0 0 0 -8.05,-2.07c-0.11,-0.43 -0.24,-0.88 -0.37,-1.36c-2.24,-8.08 -6.89,-22.09 -12.82,-25.16l0.78,-1c2.52,-3.3 5.36,-8.19 1.17,-9.45s-4.57,4.25 -4.34,8.37c0,0.52 0.08,1 0.12,1.46a6.17,6.17 0 0 0 -4.38,2.14l-0.65,-0.76c-3.4,-4 -9.63,-10.37 -11.52,-5.56c-1.76,4.48 3.73,10.29 7.59,13.66l0.24,0.21c-2.59,10.53 8.69,19.13 14.81,22.85l0.79,0.48c-8.4,9.9 -13.59,28.45 -13.59,28.45l23.52,4.2s15.6,-13.45 13.6,-26.09l0.16,0c15.59,-3.12 19.13,-19.74 16.7,-29.61l0.28,-0.11a17.74,17.74 0 0 0 7.22,-5.46c4.36,-6.07 -4.8,-12.91 -9.26,-6.96z"/>
  <path id="svg_68" fill="#536dfe" d="m161.22,366.03l-2.72,8.05s-1.53,-1.08 -3.46,-2.78c-3.86,-3.37 -9.35,-9.18 -7.59,-13.66c1.89,-4.81 8.12,1.54 11.52,5.56c1.34,1.59 2.25,2.83 2.25,2.83z"/>
  <path id="svg_69" fill="#536dfe" d="m167.02,361.44a38.89,38.89 0 0 1 -2.68,3.15a42.22,42.22 0 0 1 -0.49,-4.23c-0.23,-4.12 0.21,-9.59 4.34,-8.37s1.31,6.15 -1.17,9.45z"/>
  <path id="svg_70" fill="#536dfe" d="m202.5,362.71c-0.08,2.65 -0.34,4.76 -0.34,4.76a34,34 0 0 1 -3.43,-3.06c-3.11,-3.23 -6.55,-8.21 -1.73,-11.21c5.02,-3.11 5.64,4.24 5.5,9.51z"/>
  <path id="svg_71" fill="#536dfe" d="m218.74,366.18a17.74,17.74 0 0 1 -7.24,5.45a20.18,20.18 0 0 1 -2.42,0.87l-3.24,-4.55a33.05,33.05 0 0 1 1.34,-4.42a17.18,17.18 0 0 1 2.28,-4.29c4.5,-5.94 13.64,0.9 9.28,6.94z"/>
  <path id="svg_72" opacity="0.1" d="m158.94,363.2c1.37,1.59 2.28,2.83 2.28,2.83l-2.72,8.05s-1.53,-1.08 -3.46,-2.78a15.75,15.75 0 0 1 3.1,-7.07c0.24,-0.37 0.53,-0.72 0.8,-1.03z"/>
  <path id="svg_73" opacity="0.1" d="m167.02,361.44a38.89,38.89 0 0 1 -2.68,3.15a42.22,42.22 0 0 1 -0.49,-4.23a5.46,5.46 0 0 1 3.17,1.08z"/>
  <path id="svg_74" fill="#536dfe" d="m180.5,393.4l-6.84,3s-1.49,-0.72 -3.64,-2.06c-7.19,-4.43 -21.64,-15.56 -11.95,-28.68s17.77,10.42 20.95,21.92c1.01,3.45 1.48,5.82 1.48,5.82z"/>
  <path id="svg_75" opacity="0.1" d="m198.72,364.41a5.57,5.57 0 0 1 3.77,-1.7c-0.08,2.65 -0.34,4.76 -0.34,4.76a34,34 0 0 1 -3.43,-3.06z"/>
  <path id="svg_76" opacity="0.1" d="m211.5,371.63a20.18,20.18 0 0 1 -2.42,0.87l-3.24,-4.55a33.05,33.05 0 0 1 1.34,-4.42c2.11,1.24 3.65,4.27 4.32,8.1z"/>
  <path id="svg_77" fill="#536dfe" d="m194.5,401.36l-1.15,0.2c-22.93,3.49 -7.56,-8.88 -7.56,-8.88s1,-0.95 2.43,-2.51c2.77,-3.05 6.93,-8.4 7.41,-13.34c0.72,-7.43 1.55,-14.4 10.32,-12.35c8.65,2.01 10.3,32.53 -11.45,36.88z"/>
  <rect id="svg_78" fill="#474157" height="11.52" width="43.81" y="458.44" x="150.3"/>
  <rect id="svg_79" fill="#474157" height="40.2" width="57.24" y="421" x="143.34"/>
  <rect id="svg_80" opacity="0.1" height="11.52" width="43.81" y="458.44" x="149.88"/>
  <rect id="svg_81" opacity="0.1" height="40.2" width="57.24" y="421.01" x="143.16"/>
  <rect id="svg_82" fill="#474157" height="11.52" width="43.81" y="458.44" x="153.18"/>
  <path id="svg_83" opacity="0.1" d="m179.06,387.63c1,3.44 1.48,5.81 1.48,5.81l-6.84,3s-1.49,-0.72 -3.64,-2.06c2.68,-3.43 5.7,-6 9,-6.75z"/>
  <path id="svg_84" opacity="0.1" d="m194.5,401.36l-1.15,0.2c-22.93,3.49 -7.56,-8.88 -7.56,-8.88s1,-0.95 2.43,-2.51c4.28,3.46 6.09,7.29 6.28,11.19z"/>
  <path id="svg_85" fill="#536dfe" d="m157.26,423.28s12.84,-46 30.85,-31.8s-7.33,36 -7.33,36l-23.52,-4.2z"/>
  <circle id="svg_86" opacity="0.1" r="1.44" cy="372.87" cx="163.74"/>
  <circle id="svg_87" opacity="0.1" r="1.44" cy="379.6" cx="163.62"/>
  <circle id="svg_88" opacity="0.1" r="1.44" cy="374.19" cx="205.39"/>
  <circle id="svg_89" opacity="0.1" r="1.44" cy="408.64" cx="171.78"/>
  <circle id="svg_90" opacity="0.1" r="1.44" cy="385.36" cx="202.39"/>
  <circle id="svg_91" opacity="0.1" r="1.44" cy="400.24" cx="187.51"/>
  <circle id="svg_92" opacity="0.1" r="1.44" cy="375.75" cx="168.66"/>
  <circle id="svg_93" opacity="0.1" r="1.44" cy="378.52" cx="201.43"/>
  <circle id="svg_94" opacity="0.1" r="1.44" cy="389.68" cx="196.51"/>
  <circle id="svg_95" opacity="0.1" r="1.44" cy="407.56" cx="181.38"/>
  <circle id="svg_96" opacity="0.1" r="1.44" cy="400.48" cx="178.26"/>
  <circle id="svg_97" opacity="0.1" r="1.44" cy="384.52" cx="170.82"/>
  <rect id="svg_98" opacity="0.1" height="4.21" width="43.81" y="458.44" x="153.18"/>
  <rect id="svg_99" fill="#474157" height="40.2" width="57.24" y="421" x="146.22"/>
  <circle id="svg_100" opacity="0.1" r="1.44" cy="414.04" cx="183.3"/>
  <circle id="svg_101" opacity="0.1" r="1.44" cy="415.84" cx="174.66"/>
  <path id="svg_102" fill="#536dfe" d="m311.89,574.63s7.13,9.33 -3.29,23.41s-19,26 -15.56,34.76c0,0 15.74,-26.16 28.55,-26.52s4.39,-15.91 -9.7,-31.65z"/>
  <path id="svg_103" opacity="0.1" d="m311.89,574.63a11.49,11.49 0 0 1 1.46,2.92c12.49,14.68 19.15,28.38 7.14,28.73c-11.19,0.35 -24.61,20.35 -27.83,25.35c0.11,0.39 0.24,0.78 0.38,1.15c0,0 15.74,-26.16 28.55,-26.52s4.39,-15.89 -9.7,-31.63z"/>
  <path id="svg_104" fill="#ffd037" d="m325.15,586.53c0,3.28 -0.37,5.94 -0.82,5.94s-0.82,-2.66 -0.82,-5.94s0.46,-1.74 0.91,-1.74s0.73,-1.55 0.73,1.74z"/>
  <path id="svg_105" fill="#ffd037" d="m329.7,590.45c-2.88,1.57 -5.39,2.52 -5.61,2.12s1.94,-2 4.83,-3.57s1.74,-0.43 2,0s1.67,-0.12 -1.22,1.45z"/>
  <path id="svg_106" fill="#536dfe" d="m274.2,574.63s-7.13,9.33 3.29,23.41s19,26 15.55,34.76c0,0 -15.73,-26.16 -28.54,-26.52s-4.39,-15.91 9.7,-31.65z"/>
  <path id="svg_107" opacity="0.1" d="m274.2,574.63a11.49,11.49 0 0 0 -1.46,2.92c-12.49,14.68 -19.15,28.38 -7.14,28.73c11.19,0.35 24.61,20.35 27.83,25.35a11.1,11.1 0 0 1 -0.39,1.15s-15.73,-26.15 -28.54,-26.49s-4.39,-15.92 9.7,-31.66z"/>
  <path id="svg_108" fill="#ffd037" d="m260.94,586.53c0,3.28 0.37,5.94 0.82,5.94s0.82,-2.66 0.82,-5.94s-0.46,-1.74 -0.91,-1.74s-0.73,-1.55 -0.73,1.74z"/>
  <path id="svg_109" fill="#ffd037" d="m256.39,590.45c2.88,1.57 5.39,2.52 5.61,2.12s-1.94,-2 -4.83,-3.57s-1.74,-0.43 -2,0s-1.67,-0.12 1.22,1.45z"/>
  <ellipse id="svg_110" opacity="0.1" fill="#536dfe" ry="11.45" rx="74.6" cy="692.74" cx="293.04"/>
  <path id="svg_111" fill="#65617d" d="m331.44,620.24l-0.36,2.91l-0.5,4.12l-0.2,1.71l-0.51,4.12l-0.21,1.72l-0.5,4.11l-5.66,46.8c-0.51,4.18 -7.34,7.43 -15.57,7.43l-29.72,0c-8.24,0 -15,-3.25 -15.56,-7.43l-5.72,-46.8l-0.5,-4.11l-0.21,-1.72l-0.51,-4.12l-0.2,-1.71l-0.5,-4.12l-0.36,-2.91c-0.29,-2.36 3.4,-4.36 8.07,-4.36l60.66,0c4.65,0 8.35,2 8.06,4.36z"/>
  <polygon id="svg_112" fill="#9d9cb5" points="331.08 623.15 330.58 627.26 255.51 627.26 255.01 623.15 331.08 623.15"/>
  <polygon id="svg_113" fill="#9d9cb5" points="330.38 628.98 329.88 633.1 256.22 633.1 255.71 628.98 330.38 628.98"/>
  <polygon id="svg_114" fill="#9d9cb5" points="329.66 634.81 329.16 638.93 256.93 638.93 256.43 634.81 329.66 634.81"/>
  <path stroke="null" id="svg_116" d="m515.4125,317.82377c0,0.09143 -0.33354,0.16556 -0.745,0.16556m0.745,-0.16556l0,0c0,0.09143 -0.33354,0.16556 -0.745,0.16556c-0.41145,0 -0.745,-0.07413 -0.745,-0.16556m0.745,-0.16555c0.41146,0 0.745,0.07412 0.745,0.16555l0,0.66222c0,0.09144 -0.33354,0.16556 -0.745,0.16556c-0.41145,0 -0.745,-0.07412 -0.745,-0.16556l0.745,-0.82777z" stroke-opacity="null" stroke-width="null" fill="#d5d7e0"/>
  <rect rx="15" stroke="null" id="svg_122" height="46.00005" width="213.0002" y="295.00029" x="429.49993" stroke-opacity="null" stroke-width="null" fill="#e3e4e8"/>
  <ellipse stroke="null" ry="17.00002" rx="22.00002" id="svg_123" cy="319.00032" cx="465.49996" stroke-opacity="null" stroke-width="null" fill="#efefef"/>
  <text stroke="null" transform="matrix(3.9292869202238307,0,0,0.4101376533508301,-1558.1948411191293,188.26747117191553) " xml:space="preserve" text-anchor="start" font-family="Helvetica, Arial, sans-serif" font-size="24" id="svg_125" y="314.00031" x="528.50002" fill-opacity="null" stroke-opacity="null" stroke-width="0" fill="#4526c1"/>
  <path stroke="null" transform="rotate(-48 468.28021240234386,321.4842529296875) " id="svg_127" d="m458.84111,322.77141l18.87826,0l0,-2.57433l-18.87826,0l0,2.57433z" stroke-opacity="null" stroke-width="null" fill="#d0d2db"/>
  <path stroke="null" transform="rotate(56 459.48596191406256,323.1301879882812) " id="svg_128" d="m465.67008,324.44458l-12.36827,0l0,-2.6288l12.36827,0l0,2.6288z" stroke-opacity="null" stroke-width="null" fill="#dcdee5"/>
  <path stroke="null" id="svg_129" d="m505.96251,312.92227l84.00004,0l0,-2.52389l-84.00004,0l0,2.52389z" stroke-opacity="null" stroke-width="null" fill="#d2d3d8"/>
  <path stroke="null" id="svg_130" d="m540.78756,324.88231l1.48747,0l0,0.47606l-1.48747,0l0,-0.47606z" fill-opacity="null" stroke-opacity="null" stroke-width="null" fill="#d9d9e0"/>
  <path stroke="null" id="svg_131" d="m523.9025,321.89731l51.00008,0l0,2.47613l-51.00008,0l0,-2.47613z" stroke-opacity="null" stroke-width="null" fill="#c5c7cc"/>
 </g>
</svg>