<svg width="1280" height="960" xmlns="http://www.w3.org/2000/svg" stroke="null" style="vector-effect: non-scaling-stroke;">
 <!-- Created with Method Draw - http://github.com/duopixel/Method-Draw/ -->

 <g stroke="null">
  <title stroke="null">background</title>
  <rect stroke="null" fill="#fff" id="canvas_background" height="962" width="1282" y="-1" x="-1"/>
  <g stroke="null" style="vector-effect: non-scaling-stroke;" display="none" overflow="visible" y="0" x="0" height="100%" width="100%" id="canvasGrid">
   <rect fill="url(#gridpattern)" stroke-width="0" y="0" x="0" height="100%" width="100%"/>
  </g>
 </g>
 <g stroke="null">
  <title stroke="null">Layer 1</title>
  <g stroke="null" id="svg_34">
   <path stroke="null" id="svg_7" fill="#ffb8b8" d="m800.75572,636.8493a11.5648,12.04645 0 0 0 -3.82281,-18.03754l2.28581,-27.42515l-15.66104,-5.51178l-2.70579,38.77685a11.62752,12.11178 0 0 0 19.90384,12.19762l0,-0.00001z"/>
   <polygon stroke="null" id="svg_8" fill="#ffb8b8" points="878.9086303710938,850.0749652422382 864.8095092773438,850.0737880909 858.1038208007812,793.4238377212314 878.9139404296875,793.4250802698662 878.9086303710938,850.0749652422382 "/>
   <path stroke="null" id="svg_9" fill="#2f2e41" d="m854.73784,845.87646l27.19209,0a0,0 0 0 1 0,0l0,17.83406a0,0 0 0 1 0,0l-44.313,0a0,0 0 0 1 0,0l0,0a17.12091,17.83397 0 0 1 17.12091,-17.83406z"/>
   <polygon stroke="null" id="svg_10" fill="#ffb8b8" points="846.9041748046875,812.4847953676945 833.2115478515625,815.9891749015078 813.7178955078125,762.6454502570559 833.9258422851562,757.4718047283823 846.9041748046875,812.4847953676945 "/>
   <path stroke="null" id="svg_11" fill="#2f2e41" d="m1114.20197,932.5547l26.40657,-6.7589a0,0 0 0 1 0,0l4.08545,17.31881a0,0 0 0 1 0,0l-43.0329,11.0145a0,0 0 0 1 0,0l0,0a16.62633,17.31878 0 0 1 12.54088,-21.5744z"/>
   <path stroke="null" id="svg_12" fill="#2f2e41" d="m862.40697,832.01467a5.19242,5.40867 0 0 1 -5.17568,-4.85521l-16.22502,-157.44281l-14.11818,48.14449l19.99635,75.19697a5.21092,5.42794 0 0 1 -3.08993,6.49559l-15.89711,6.62418a5.21696,5.43424 0 0 1 -6.86398,-3.25752l-24.5069,-73.23921a63.65391,66.30497 0 0 1 -3.49672,-24.91655l3.42054,-79.03849l90.08533,3.97325l-1.40646,195.54877a5.24683,5.46535 0 0 1 -4.8249,5.37771l-17.49417,1.37314q-0.2028,0.01602 -0.40319,0.0157z"/>
   <circle stroke="null" transform="matrix(1.2333237679813882,0,0,1.2846892318720653,-6294.989639240997,-4846.498684774283) " id="svg_13" fill="#ffb8b8" r="24.56103" cy="4098.85461" cx="5791.24224"/>
   <path stroke="null" id="svg_14" fill="#6c63ff" d="m869.76296,634.84122c-7.97714,0 -17.88862,-0.67999 -28.14092,-1.38254c-14.01009,-0.96038 -28.49718,-1.95338 -39.3119,-1.301a8.5918,8.94963 0 0 1 -7.68568,-3.48647c-11.1484,-14.86865 6.04707,-72.85154 6.78451,-75.31234l13.99383,-64.83603l0.6016,0.14114l-0.6016,-0.14114c3.07819,-14.25955 12.91406,-24.77857 25.66917,-27.45146c11.93878,-2.49786 23.48618,2.48094 30.89211,13.32865q0.58941,0.86285 1.17822,1.77147c24.11395,37.20016 10.47512,129.62 9.56097,135.58489c1.27367,1.58893 8.16204,10.57548 6.26839,16.81764c-0.77024,2.53928 -2.8623,4.26996 -6.21871,5.14378a57.97462,60.38914 0 0 1 -12.98999,1.12341z"/>
   <path stroke="null" id="svg_15" fill="#2f2e41" d="m802.79914,634.8707c-2.74366,0 -6.44484,-1.05447 -11.43595,-3.21799c-2.14475,-0.92964 -8.6715,-3.75809 -0.74795,-75.88888c3.89207,-35.43183 9.46763,-70.6165 9.52364,-70.96779l0.05359,-0.33873l0.30051,-0.14177c0.14362,-0.06775 14.38285,-6.86695 16.85913,-15.60384q0.12872,-0.4535 0.28846,-0.87946a7.70087,8.0216 0 0 1 9.56308,-4.89224a8.09138,8.42837 0 0 1 6.09526,9.6195a56.76249,59.12654 0 0 1 -4.92186,16.4331c-6.70048,14.40137 -11.23992,52.57943 -11.28509,52.96332c-0.25594,3.26066 -6.33735,80.51389 -7.50894,86.37654c-0.4092,2.04747 -1.16196,4.55349 -3.37117,5.76855a7.20489,7.50496 0 0 1 -3.41272,0.76968z"/>
   <path stroke="null" id="svg_16" fill="#2f2e41" d="m835.89082,631.90989a2.4893,2.59298 0 0 1 -1.5278,-0.54637c-8.91149,-7.05387 5.51081,-92.56349 14.06549,-122.06617c1.71299,-5.90719 3.23808,-10.9669 4.5337,-15.03865l0,0a110.08872,114.6737 0 0 0 4.92005,-22.48959c0.47062,-4.14387 1.49409,-6.51127 3.12908,-7.23641c1.13577,-0.50497 2.47237,-0.16246 3.97097,1.01935c7.90158,-0.40649 15.57914,2.95705 22.69544,6.65617l6.40299,3.32777l7.18562,132.51432c-0.20294,8.45774 -16.20726,14.42766 -23.19142,14.80905c-11.20952,0.61223 -31.33895,2.51355 -40.20648,8.36177a3.70737,3.86178 0 0 1 -1.97762,0.68876z"/>
   <path stroke="null" id="svg_17" fill="#2f2e41" d="m795.86109,607.04665c-0.10629,0 -0.21228,-0.00313 -0.31943,-0.01003l-14.51324,-0.93028a5.21601,5.43325 0 0 1 -4.83785,-6.2346l6.56745,-45.32231l12.36336,-63.58898a10.95093,11.40701 0 0 1 14.01249,-8.61958l0,0a11.01088,11.46946 0 0 1 7.53273,12.69195l-9.82234,63.71632l-5.81463,43.61169a5.24269,5.46103 0 0 1 -5.16855,4.68583z"/>
   <path stroke="null" id="svg_18" fill="#ffb8b8" d="m845.44275,557.4382a11.56488,12.04653 0 0 1 17.54439,-2.68906l23.79698,-11.9733l10.51228,13.28903l-33.83391,16.41694a11.62752,12.11178 0 0 1 -18.01972,-15.04361l-0.00002,0z"/>
   <path stroke="null" id="svg_19" fill="#2f2e41" d="m878.4998,570.29688a5.21965,5.43704 0 0 1 -5.0742,-4.16458l-3.45701,-14.96587a5.19397,5.41029 0 0 1 2.39318,-5.93416l20.84516,-12.99557l-10.65549,-40.63958a13.34343,13.89916 0 0 1 0.46761,-8.73752a13.26212,13.81446 0 0 1 24.92994,0.79728l11.76445,37.4172a21.67629,22.57907 0 0 1 -7.91905,25.40216l-30.23904,22.78874a5.20983,5.42681 0 0 1 -3.05556,1.03189z"/>
   <path stroke="null" id="svg_20" fill="#2f2e41" d="m853.0208,450.03315a32.31925,33.66528 0 1 0 -6.05584,-66.57942c-6.6614,-4.21316 -14.40633,-7.04815 -22.16872,-6.32709s-15.43918,5.52145 -18.34189,13.05511s0.21567,17.46421 7.43334,20.52588c4.62723,1.96283 9.8526,1.01093 14.7907,0.21942s10.32503,-1.30803 14.62271,1.34601s6.2296,9.77069 2.38064,13.08888a13.24401,13.7956 0 0 0 -3.80382,15.18537c1.93442,5.21107 7.21415,9.39742 11.1429,9.48584z"/>
   <path stroke="null" id="svg_21" fill="#3f3d56" d="m653.29559,189.53644l-583.6009,0a20.59086,21.44843 0 0 0 -20.57221,21.42899l0,65.41482a20.59086,21.44843 0 0 0 20.57221,21.429l583.6009,0a20.59086,21.44843 0 0 0 20.57221,-21.429l0,-65.41482a20.59086,21.44843 0 0 0 -20.57221,-21.42899zm18.40672,86.84381a18.43283,19.20052 0 0 1 -18.40672,19.17332l-583.6009,0a18.43281,19.2005 0 0 1 -18.40673,-19.17332l0,-65.41482a18.43281,19.2005 0 0 1 18.4067,-19.17331l583.60093,0a18.43283,19.20052 0 0 1 18.40672,19.17331l0,65.41482z"/>
   <path stroke="null" id="svg_22" fill="#ccc" d="m653.29559,452.32358l-583.6009,0a20.59562,21.45339 0 0 1 -20.57221,-21.429l0,-65.41481a20.59561,21.45337 0 0 1 20.57221,-21.42899l583.6009,0a20.59561,21.45337 0 0 1 20.57221,21.42899l0,65.41482a20.59562,21.45339 0 0 1 -20.57221,21.42899zm-583.6009,-106.01713a18.42736,19.19482 0 0 0 -18.40673,19.17332l0,65.41482a18.42736,19.19482 0 0 0 18.4067,19.17331l583.60093,0a18.42746,19.19493 0 0 0 18.40672,-19.17331l0,-65.41482a18.42746,19.19493 0 0 0 -18.40672,-19.17331l-583.6009,-0.00001z"/>
   <path stroke="null" id="svg_23" fill="#ccc" d="m653.29559,606.8379l-583.6009,0a20.59561,21.45337 0 0 1 -20.57221,-21.42899l0,-65.41482a20.59562,21.45339 0 0 1 20.57221,-21.429l583.6009,0a20.59562,21.45339 0 0 1 20.57221,21.429l0,65.41482a20.59561,21.45337 0 0 1 -20.57221,21.42899zm-583.6009,-106.01713a18.42737,19.19484 0 0 0 -18.40673,19.17332l0,65.41482a18.42736,19.19482 0 0 0 18.40673,19.17337l583.6009,0a18.42746,19.19493 0 0 0 18.40672,-19.17331l0,-65.41489a18.42747,19.19494 0 0 0 -18.40672,-19.17332l-583.6009,0z"/>
   <path stroke="null" id="svg_24" fill="#6c63ff" d="m148.55204,280.97019a35.80614,37.29739 0 1 1 35.80586,-37.29739a35.84679,37.33974 0 0 1 -35.80586,37.29739z"/>
   <path stroke="null" id="svg_25" fill="#ccc" d="m600.4243,274.12457l-382.20987,0a8.66198,9.02273 0 1 1 0,-18.04546l382.20987,0a8.66198,9.02273 0 1 1 0,18.04546z"/>
   <path stroke="null" id="svg_26" fill="#ccc" d="m475.90834,235.77796l-257.69391,0a8.66199,9.02275 0 1 1 0,-18.04548l257.69391,0a8.66198,9.02273 0 0 1 0,18.04548z"/>
   <path stroke="null" id="svg_27" fill="#e6e6e6" d="m148.55204,435.48417a35.80586,37.2971 0 1 1 35.80586,-37.29676a35.84626,37.33918 0 0 1 -35.80586,37.29676z"/>
   <path stroke="null" id="svg_28" fill="#e6e6e6" d="m600.4243,428.63895l-382.20987,0a8.66198,9.02273 0 1 1 0,-18.04546l382.20987,0a8.66198,9.02273 0 1 1 0,18.04546z"/>
   <path stroke="null" id="svg_29" fill="#e6e6e6" d="m475.90834,390.29226l-257.69391,0a8.66198,9.02273 0 1 1 0,-18.04546l257.69391,0a8.66198,9.02273 0 0 1 0,18.04546z"/>
   <path stroke="null" id="svg_30" fill="#e6e6e6" d="m148.55204,589.99879a35.80614,37.29739 0 1 1 35.80586,-37.29739a35.84679,37.33974 0 0 1 -35.80586,37.29739z"/>
   <path stroke="null" id="svg_31" fill="#e6e6e6" d="m600.4243,583.15322l-382.20987,0a8.66199,9.02275 0 1 1 0,-18.04548l382.20987,0a8.66199,9.02275 0 0 1 0,18.04548z"/>
   <path stroke="null" id="svg_32" fill="#e6e6e6" d="m475.90834,544.8066l-257.69391,0a8.66198,9.02273 0 1 1 0,-18.04546l257.69391,0a8.66198,9.02273 0 0 1 0,18.04546z"/>
   <path stroke="null" fill="#fff" d="m146.72322,256.79217a4.09566,4.26623 0 0 1 -2.46395,-0.85303l-0.04408,-0.03443l-9.28045,-7.39493a4.12417,4.29594 0 1 1 5.01846,-6.81864l6.01113,4.8016l14.20465,-19.30333a4.12242,4.29411 0 0 1 5.77984,-0.79522l0.00123,0.00094l-0.08816,0.12751l0.09055,-0.12751a4.12739,4.29929 0 0 1 0.76254,6.02176l-16.70776,22.69482a4.12491,4.29671 0 0 1 -3.28035,1.67532l-0.00365,0.00514z" id="svg_5"/>
   <path stroke="null" id="svg_33" fill="#ccc" d="m969.9462,865.28298l-244.19811,0a1.23332,1.28469 0 0 1 0,-2.56938l244.19811,0a1.23332,1.28469 0 0 1 0,2.56938z"/>
  </g>
  <text font-style="normal" font-weight="normal" stroke="#000" transform="matrix(2.8290139448396063,0,0,1.654677606975436,-568.1369887972857,-456.4145999598068) " xml:space="preserve" text-anchor="start" font-family="serif" font-size="24" id="svg_35" y="702.20874" x="313.41392" stroke-width="0" fill="#6038e2">Opps!</text>
  <text stroke="#000" transform="matrix(1.2422801432959203,0,0,2.017757355610832,-62.750357887825366,-750.0505394493943) " font-style="normal" font-weight="normal" xml:space="preserve" text-anchor="start" font-family="serif" font-size="24" id="svg_36" y="759" x="259" stroke-width="0" fill="#6038e2">Authorization Pending!</text>
 </g>
</svg>