<svg width="1280" height="960" xmlns="http://www.w3.org/2000/svg" stroke="null" style="vector-effect: non-scaling-stroke;">
 <!-- Created with Method Draw - http://github.com/duopixel/Method-Draw/ -->

 <g stroke="null">
  <title stroke="null">background</title>
  <rect stroke="null" fill="#fff" id="canvas_background" height="962" width="1282" y="-1" x="-1"/>
  <g stroke="null" style="vector-effect: non-scaling-stroke;" display="none" overflow="visible" y="0" x="0" height="100%" width="100%" id="canvasGrid">
   <rect fill="url(#gridpattern)" stroke-width="0" y="0" x="0" height="100%" width="100%"/>
  </g>
 </g>
 <g stroke="null">
  <title stroke="null">Layer 1</title>
  <g stroke="null" id="svg_55">
   <circle stroke="null" transform="matrix(0.7585832030070755,0,0,1.0840827874839463,-8720.798208404574,-9766.8378635137) " id="svg_5" fill="#f2f2f2" r="213" cy="9242.81606" cx="12094.91576"/>
   <path stroke="null" id="svg_6" fill="#2f2e41" d="m232.23337,77.67287c0,84.01413 36.88087,151.99729 82.45855,151.99729"/>
   <path stroke="null" id="svg_7" fill="#6c63ff" d="m314.69192,229.67015c0,-84.9581 41.15693,-153.70512 92.01896,-153.70512"/>
   <path stroke="null" id="svg_8" fill="#6c63ff" d="m262.10966,85.28889c0,79.80449 23.51824,144.38127 52.58226,144.38127"/>
   <path stroke="null" id="svg_9" fill="#2f2e41" d="m314.69192,229.67015c0,-108.55758 47.57098,-196.40098 106.35958,-196.40098"/>
   <path stroke="null" id="svg_10" fill="#a8a8a8" d="m297.34477,230.74176s11.69398,-0.51471 15.21825,-4.10109s17.98828,-7.86881 18.86257,-2.11698s17.57388,28.607 4.37143,28.7592s-30.67661,-2.93895 -34.1941,-6.00093s-4.25816,-16.54021 -4.25816,-16.54021z"/>
   <path stroke="null" id="svg_11" opacity="0.2" d="m336.03267,251.28062c-13.20244,0.15223 -30.6766,-2.93888 -34.19409,-6.00092c-2.67875,-2.33186 -3.74621,-10.6993 -4.10337,-14.5597c-0.24735,0.01518 -0.39039,0.02168 -0.39039,0.02168s0.74067,13.47814 4.25816,16.54018s20.99164,6.15313 34.19409,6.00091c3.81102,-0.04393 5.12742,-1.98163 5.05513,-4.85155c-0.52948,1.734 -1.98297,2.81672 -4.81953,2.8494z"/>
   <ellipse stroke="null" transform="matrix(0.7585832030070755,0,0,1.0840827874839463,-8720.798208404574,-9766.8378635137) " id="svg_12" fill="#3f3d56" ry="25.43993" rx="187" cy="9454.31606" cx="12000.91576"/>
   <ellipse stroke="null" transform="matrix(0.7585832030070755,0,0,1.0840827874839463,-8720.798208404574,-9766.8378635137) " id="svg_13" opacity="0.1" ry="21.35866" rx="157" cy="9454.31606" cx="12000.91576"/>
   <ellipse stroke="null" transform="matrix(0.7585832030070755,0,0,1.0840827874839463,-8720.798208404574,-9766.8378635137) " id="svg_14" fill="#3f3d56" ry="38.5" rx="283" cy="9690.31606" cx="12638.91576"/>
   <ellipse stroke="null" transform="matrix(0.7585832030070755,0,0,1.0840827874839463,-8720.798208404574,-9766.8378635137) " id="svg_15" fill="#3f3d56" ry="23.12721" rx="170" cy="9675.31606" cx="12112.91576"/>
   <path stroke="#2f2e41" id="svg_16" stroke-width="2" stroke-miterlimit="10" fill="none" d="m583.16087,700.86613c68.27249,24.9339 199.50738,-32.52248 213.92046,-97.56745"/>
   <path stroke="#2f2e41" id="svg_17" stroke-width="2" stroke-miterlimit="10" fill="none" d="m467.09764,303.00775s98.61582,-39.02698 104.68448,86.72662s-81.1684,161.52834 -12.89591,186.46224"/>
   <path stroke="#2f2e41" id="svg_18" stroke-width="2" stroke-miterlimit="10" fill="none" d="m371.82136,604.6899s29.63959,-11.72978 31.46357,26.06622s-24.39566,48.54834 -3.87595,56.04238"/>
   <path stroke="null" id="svg_19" fill="#2f2e41" d="m822.94564,632.82896l-5.97577,54.52413s-29.41924,22.33518 -8.73383,22.99211s118.13662,0 118.13662,0s18.8467,0 -11.03221,-23.64903l-5.97578,-57.15176l-86.41902,3.28455z"/>
   <path stroke="null" id="svg_20" opacity="0.1" d="m804.07476,709.75357c4.69791,-5.97372 12.89508,-12.1981 12.89508,-12.1981l5.97578,-54.52416l86.41901,0.11618l5.97578,53.75099c6.96759,5.51485 11.28385,9.74265 13.80896,12.98534c3.83754,-1.25127 8.03124,-5.90124 -13.80896,-23.18767l-5.97578,-57.15176l-86.41901,3.28459l-5.97575,54.52413s-24.72082,18.77048 -12.89511,22.40047z"/>
   <rect stroke="null" transform="matrix(0.7585832030070755,0,0,1.0840827874839463,-8720.798208404574,-9766.8378635137) " id="svg_21" fill="#2f2e41" rx="18.04568" height="357.51989" width="513.25314" y="9242.50465" x="12380.73956"/>
   <rect stroke="null" transform="matrix(0.7585832030070755,0,0,1.0840827874839463,-8720.798208404574,-9766.8378635137) " id="svg_22" fill="#3f3d56" height="267.83694" width="478.71308" y="9261.59258" x="12398.00959"/>
   <circle stroke="null" transform="matrix(0.7585832030070755,0,0,1.0840827874839463,-8720.798208404574,-9766.8378635137) " id="svg_23" fill="#f2f2f2" r="3.02983" cy="9253.10905" cx="12637.36613"/>
   <path stroke="null" id="svg_24" fill="#2f2e41" d="m1060.36807,586.84475l0,33.97574a13.68743,19.56055 0 0 1 -13.68915,19.56301l-361.9669,0a13.68743,19.56055 0 0 1 -13.68916,-19.56301l0,-33.97574l389.34521,0z"/>
   <polygon stroke="null" id="svg_25" fill="#2f2e41" points="967.2835083007812,745.8187255859375 967.2835083007812,752.3877563476562 719.9779052734375,752.3877563476562 719.9779052734375,747.13232421875 720.31884765625,745.8187255859375 726.4136962890625,722.1697998046875 962.22705078125,722.1697998046875 967.2835083007812,745.8187255859375 "/>
   <path stroke="null" id="svg_26" fill="#2f2e41" d="m1062.45498,739.38748c-0.45047,2.75249 -2.15127,5.65613 -5.99416,8.40199c-13.79028,9.85376 -41.83048,-2.62766 -41.83048,-2.62766s-21.60475,-5.25534 -21.60475,-19.05059a17.23848,24.63532 0 0 1 1.89386,-1.60942c5.79781,-4.3835 25.02148,-15.20016 59.10706,0.458a14.21525,20.31486 0 0 1 6.4791,6.06777c1.38124,2.31066 2.4642,5.24161 1.94936,8.3599z"/>
   <path stroke="null" id="svg_27" opacity="0.1" d="m1062.45498,739.38748c-16.87923,9.24289 -31.92444,9.93258 -47.36496,-5.39331c-7.78691,-7.72536 -14.86132,-9.63701 -20.17057,-9.49242c5.79781,-4.3835 25.02148,-15.20016 59.10706,0.458a14.21525,20.31486 0 0 1 6.4791,6.06777c1.38124,2.31071 2.4642,5.24166 1.94936,8.35996z"/>
   <ellipse stroke="null" transform="matrix(0.7585832030070755,0,0,1.0840827874839463,-8720.798208404574,-9766.8378635137) " id="svg_28" fill="#f2f2f2" ry="2.42386" rx="7.87756" cy="9683.95083" cx="12868.84511"/>
   <circle stroke="null" transform="matrix(0.7585832030070755,0,0,1.0840827874839463,-8720.798208404574,-9766.8378635137) " id="svg_29" fill="#f2f2f2" r="11.51335" cy="9575.48292" cx="12637.36613"/>
   <polygon stroke="null" id="svg_30" opacity="0.1" points="967.2835083007812,745.8187255859375 967.2835083007812,752.3877563476562 719.9779052734375,752.3877563476562 719.9779052734375,747.13232421875 720.31884765625,745.8187255859375 967.2835083007812,745.8187255859375 "/>
   <rect stroke="null" transform="matrix(0.7585832030070755,0,0,1.0840827874839463,-8720.798208404574,-9766.8378635137) " id="svg_31" fill="#2f2e41" height="242" width="208" y="9188.81606" x="11910.91576"/>
   <rect stroke="null" transform="matrix(0.7585832030070755,0,0,1.0840827874839463,-8720.798208404574,-9766.8378635137) " id="svg_32" fill="#3f3d56" height="86" width="250" y="9164.81606" x="11889.91576"/>
   <rect stroke="null" transform="matrix(0.7585832030070755,0,0,1.0840827874839463,-8720.798208404574,-9766.8378635137) " id="svg_33" fill="#3f3d56" height="86" width="250" y="9266.81606" x="11889.91576"/>
   <rect stroke="null" transform="matrix(0.7585832030070755,0,0,1.0840827874839463,-8720.798208404574,-9766.8378635137) " id="svg_34" fill="#3f3d56" height="86" width="250" y="9368.81606" x="11889.91576"/>
   <rect stroke="null" transform="matrix(0.7585832030070755,0,0,1.0840827874839463,-8720.798208404574,-9766.8378635137) " id="svg_35" opacity="0.4" fill="#6c63ff" height="16" width="16" y="9179.81606" x="12073.91576"/>
   <rect stroke="null" transform="matrix(0.7585832030070755,0,0,1.0840827874839463,-8720.798208404574,-9766.8378635137) " id="svg_36" opacity="0.8" fill="#6c63ff" height="16" width="16" y="9179.81606" x="12096.91576"/>
   <rect stroke="null" transform="matrix(0.7585832030070755,0,0,1.0840827874839463,-8720.798208404574,-9766.8378635137) " id="svg_37" fill="#6c63ff" height="16" width="16" y="9179.81606" x="12119.91576"/>
   <rect stroke="null" transform="matrix(0.7585832030070755,0,0,1.0840827874839463,-8720.798208404574,-9766.8378635137) " id="svg_38" opacity="0.4" fill="#6c63ff" height="16" width="16" y="9280.81606" x="12073.91576"/>
   <rect stroke="null" transform="matrix(0.7585832030070755,0,0,1.0840827874839463,-8720.798208404574,-9766.8378635137) " id="svg_39" opacity="0.8" fill="#6c63ff" height="16" width="16" y="9280.81606" x="12096.91576"/>
   <rect stroke="null" transform="matrix(0.7585832030070755,0,0,1.0840827874839463,-8720.798208404574,-9766.8378635137) " id="svg_40" fill="#6c63ff" height="16" width="16" y="9280.81606" x="12119.91576"/>
   <rect stroke="null" transform="matrix(0.7585832030070755,0,0,1.0840827874839463,-8720.798208404574,-9766.8378635137) " id="svg_41" opacity="0.4" fill="#6c63ff" height="16" width="16" y="9381.81606" x="12073.91576"/>
   <rect stroke="null" transform="matrix(0.7585832030070755,0,0,1.0840827874839463,-8720.798208404574,-9766.8378635137) " id="svg_42" opacity="0.8" fill="#6c63ff" height="16" width="16" y="9381.81606" x="12096.91576"/>
   <rect stroke="null" transform="matrix(0.7585832030070755,0,0,1.0840827874839463,-8720.798208404574,-9766.8378635137) " id="svg_43" fill="#6c63ff" height="16" width="16" y="9381.81606" x="12119.91576"/>
   <circle stroke="null" transform="matrix(0.7585832030070755,0,0,1.0840827874839463,-8720.798208404574,-9766.8378635137) " id="svg_44" fill="#2f2e41" r="79" cy="9567.81606" cx="12118.91576"/>
   <rect stroke="null" transform="matrix(0.7585832030070755,0,0,1.0840827874839463,-8720.798208404574,-9766.8378635137) " id="svg_45" fill="#2f2e41" height="43" width="24" y="9629.81606" x="12082.91576"/>
   <rect stroke="null" transform="matrix(0.7585832030070755,0,0,1.0840827874839463,-8720.798208404574,-9766.8378635137) " id="svg_46" fill="#2f2e41" height="43" width="24" y="9629.81606" x="12130.91576"/>
   <ellipse stroke="null" transform="matrix(0.7585832030070755,0,0,1.0840827874839463,-8720.798208404574,-9766.8378635137) " id="svg_47" fill="#2f2e41" ry="7.5" rx="20" cy="9673.31606" cx="12102.91576"/>
   <ellipse stroke="null" transform="matrix(0.7585832030070755,0,0,1.0840827874839463,-8720.798208404574,-9766.8378635137) " id="svg_48" fill="#2f2e41" ry="7.5" rx="20" cy="9672.31606" cx="12150.91576"/>
   <circle stroke="null" transform="matrix(0.7585832030070755,0,0,1.0840827874839463,-8720.798208404574,-9766.8378635137) " id="svg_49" fill="#fff" r="27" cy="9547.81606" cx="12120.91576"/>
   <circle stroke="null" transform="matrix(0.7585832030070755,0,0,1.0840827874839463,-8720.798208404574,-9766.8378635137) " id="svg_50" fill="#3f3d56" r="9" cy="9547.81606" cx="12120.91576"/>
   <path stroke="null" id="svg_51" fill="#6c63ff" d="m414.27547,525.82175c-4.83892,-30.96962 10.62915,-62.26312 34.54891,-69.89599s47.23326,11.2853 52.07219,42.25495s-11.01357,42.39175 -34.93333,50.02461s-46.84885,8.58605 -51.68777,-22.38357z"/>
   <ellipse stroke="null" id="svg_52" fill="#2f2e41" transform="matrix(0.6973909634948389,-0.426564034578285,0.2984867164887149,0.9966336410754247,-9961.107030719411,-3820.431943578538) " ry="12.40027" rx="39.5" cy="9759.03171" cx="11981.36694"/>
   <ellipse stroke="null" id="svg_53" fill="#2f2e41" transform="matrix(0.6973909634948389,-0.426564034578285,0.2984867164887149,0.9966336410754247,-10032.37646868001,-3532.169319128847) " ry="12.40027" rx="39.5" cy="9758.07211" cx="11800.57391"/>
   <path stroke="null" id="svg_54" fill="#fff" d="m507.30255,630.40075c0,8.38213 -15.10234,24.9339 -31.86049,24.9339s-32.61908,-15.46769 -32.61908,-23.84982s15.86092,-6.5045 32.61908,-6.5045s31.86049,-2.96171 31.86049,5.42041z"/>
  </g>
  <text stroke="#000" transform="matrix(2.2284584882887875,0,0,1.9727740780017653,-1074.6107305004825,-270.06859087883913) " xml:space="preserve" text-anchor="start" font-family="sans-serif" font-size="24" id="svg_58" y="311.12421" x="836.10252" stroke-width="0" fill="#ffffff">Opps!</text>
  <text stroke="#000" transform="matrix(1.160354361325389,0,0,1.6207820587520252,-114.57131766304093,-269.0847575617991) " xml:space="preserve" text-anchor="start" font-family="sans-serif" font-size="24" id="svg_59" y="452.17801" x="703.26999" stroke-width="0" fill="#ffffff">Data Base Error Detected!</text>
 </g>
</svg>