<svg width="1600" height="1200" xmlns="http://www.w3.org/2000/svg" stroke="null" style="vector-effect: non-scaling-stroke;">
 <!-- Created with Method Draw - http://github.com/duopixel/Method-Draw/ -->

 <g stroke="null">
  <title stroke="null">background</title>
  <rect stroke="null" fill="#fff" id="canvas_background" height="1202" width="1602" y="-1" x="-1"/>
  <g stroke="null" style="vector-effect: non-scaling-stroke;" display="none" overflow="visible" y="0" x="0" height="100%" width="100%" id="canvasGrid">
   <rect fill="url(#gridpattern)" stroke-width="0" y="0" x="0" height="100%" width="100%"/>
  </g>
 </g>
 <g stroke="null">
  <title stroke="null">Layer 1</title>
  <defs stroke="null" style="vector-effect: non-scaling-stroke;">
   <linearGradient stroke="null" style="vector-effect: non-scaling-stroke;" y2="0.50012" x2="1" y1="0.50012" x1="0.00042" id="svg_5">
    <stop stroke="null" style="vector-effect: non-scaling-stroke;" stop-opacity="0.25" stop-color="gray" offset="0"/>
    <stop stroke="null" style="vector-effect: non-scaling-stroke;" stop-opacity="0.12" stop-color="gray" offset="0.54"/>
    <stop stroke="null" style="vector-effect: non-scaling-stroke;" stop-opacity="0.1" stop-color="gray" offset="1"/>
   </linearGradient>
  </defs>
  <g stroke="null" id="svg_103">
   <ellipse stroke="null" transform="matrix(1.034746847945993,0,0,1.3089844738864036,-9741.2259996998,-9159.055233999865) " id="svg_7" opacity="0.1" fill="#6c63ff" ry="33.36" rx="176.1" cy="7786.84591" cx="10026.46599"/>
   <path stroke="null" id="svg_8" opacity="0.1" fill="#6c63ff" d="m874.12393,209.31511c-66.96882,-2.93213 -130.75061,-30.2899 -191.65581,-60.21329s-121.23094,-63.06687 -186.5959,-78.91867c-42.04176,-10.19699 -90.12645,-11.64996 -123.99371,16.83354c-32.60487,27.48867 -43.1386,74.80846 -48.79866,118.75107c-4.26316,33.06495 -6.76724,67.87084 4.9047,98.82833c8.11242,21.49353 22.4954,39.55751 32.44966,60.14784c34.63298,71.62763 10.15087,159.9579 -27.36905,229.89694c-17.5907,32.80315 -38.02695,64.14024 -51.61317,99.02468s-19.86714,74.99172 -7.9779,110.67464c11.77542,35.34258 39.8481,61.83643 70.25931,80.48946c61.76404,37.8951 134.51709,48.73349 205.51107,54.88572c157.10561,13.58726 315.03903,7.70992 472.55854,1.8064c58.29764,-2.17291 116.84361,-4.3851 174.18928,-15.78635c31.84951,-6.33548 64.72342,-16.38849 87.85001,-40.65706c29.34542,-30.8004 36.61969,-82.95035 16.94915,-121.56539c-32.98773,-64.79473 -124.16962,-80.88215 -147.25482,-150.40232c-12.686,-38.27471 0.34147,-80.89524 18.791,-116.38181c39.56872,-76.14363 105.88564,-142.9411 109.37274,-229.96239c2.40061,-59.76823 -29.47994,-119.62809 -78.77528,-147.91525c-51.66491,-29.6485 -123.32113,-25.91789 -161.42051,23.15594c-39.26864,50.47444 -108.24487,69.91286 -167.38065,67.30798z"/>
   <path stroke="null" id="svg_9" fill="url(#svg_5)" d="m820.9069,537.00629l-31.6943,-27.03053l0,0l15.98684,-30.10664l-83.71102,-8.44295l-30.08009,29.42597l-37.65444,-26.70328l-31.40457,4.77779l-0.37251,-10.47188a233.62514,295.54251 0 0 0 -2.59721,-32.59371c0.13452,-3.27246 0.22764,-7.02925 0.2173,-11.11328c0,-17.21315 -1.84185,-40.02875 -9.93357,-55.23914l1.86254,-21.17937l-15.1073,-22.57998a114.20501,144.47262 0 0 1 8.27797,-17.61893c0.51737,-0.94247 1.03475,-1.85876 1.59351,-2.74887c19.60845,-1.79331 35.07792,-22.18729 35.07792,-47.12344c0,-1.15191 0,-2.30381 -0.10347,-3.44263c0,-0.45814 -0.07243,-0.92938 -0.11382,-1.38752c1.91428,1.30898 3.84926,2.61797 5.78423,3.92695c0.36216,0.65449 0.77606,1.30898 1.23135,2.08129l0,0l0.09313,0.14399l0.57946,0.9032l0.18625,0.27489c0.20695,0.31416 0.42425,0.61522 0.64154,0.92938l0.14486,0.20944c0.54842,0.7723 1.12787,1.55769 1.74872,2.32999a1.86254,2.35617 0 0 1 0.20695,0.24871l0.77606,0.91629l0.2173,0.24871c0.66224,0.74612 1.36587,1.46606 2.06949,2.14673l0.22764,0.20944l0.88988,0.7723l0.28973,0.23562c0.34147,0.2618 0.69328,0.53668 1.03475,0.78539l0.12417,0.09163c0.40355,0.27489 0.81745,0.53668 1.23135,0.78539l0.20695,0.10472q0.52772,0.28798 1.03475,0.54977l0.32077,0.14399c0.36216,0.15708 0.71398,0.30107 1.08648,0.43196l0.22764,0.07854c0.45529,0.14399 0.91058,0.2618 1.37621,0.35343l0.05174,0a11.25805,14.24175 0 0 0 1.32448,0.17017l0.30008,0a11.38222,14.39883 0 0 0 1.18996,0l0.25869,0a12.26175,15.51147 0 0 0 1.47969,-0.22253a16.32831,20.65577 0 0 0 6.51891,-2.9583a5.69111,7.19941 0 0 0 1.32448,-1.55769c2.06949,-3.42954 -0.20695,-7.18632 -0.20695,-7.18632l0,0c-0.8071,-2.43471 -6.04292,-4.14948 -6.04292,-4.14948s-16.55595,-8.74402 -16.55595,-15.70781s-4.13899,-43.09177 -46.86368,-51.35146c0,0 -27.7933,-1.97657 -35.60564,16.84663l-0.16556,2.19909c-2.29714,1.81949 -4.20107,5.47156 -6.46717,6.54492a10.56477,13.36473 0 0 0 -2.80416,1.30898l0,-0.24871l0,0a2.66965,3.37718 0 0 0 -0.6312,1.0341a8.27797,10.47188 0 0 0 -0.85884,3.92695a11.69264,14.79152 0 0 1 -1.35552,4.75161a8.35041,10.5635 0 0 1 -0.62085,1.20427l0,0l-0.17591,0.35343a7.55365,9.55559 0 0 0 3.51814,-0.71994a17.51826,22.16111 0 0 1 -1.03475,5.23594a3.43536,4.34583 0 0 0 3.18702,-2.40853l0,-0.10472l0.13452,-0.23562a8.73326,11.04783 0 0 0 0.64154,-1.89803l-0.11382,0.15708c0.20695,-0.85084 0.3932,-1.71477 0.62085,-2.55252a3.16633,4.00549 0 0 1 0.50703,-1.30898a2.50409,3.16774 0 0 1 2.14193,-0.9032l-0.42425,11.3489l0.18625,0a12.24106,15.48529 0 0 1 -0.91058,2.38235c-1.46934,3.01066 -4.13899,5.06577 -5.122,8.36441a9.72662,12.30445 0 0 0 -0.47598,4.94796c0,0.98174 0.09313,1.97657 0.15521,2.9583l0,-0.07854c0.14486,2.61797 0.18625,5.10504 -0.93127,7.2125c-0.76571,1.43988 -1.99706,2.52634 -2.42131,4.16257a3.20772,4.05785 0 0 0 -0.15521,1.4137a12.55148,15.87798 0 0 0 0.70363,4.20184a0.14486,0.18326 0 0 0 0,-0.07854a5.04956,6.38784 0 0 1 0.17591,3.0892c-0.46564,2.61797 -2.98007,4.80397 -2.8559,7.30413a2.22471,2.81432 0 0 0 0.11382,0.96865a4.19072,5.30139 0 0 0 2.33853,2.61797a9.10577,11.51906 0 0 0 5.25651,1.46606a6.91211,8.74402 0 0 0 1.96602,-0.85084c-0.72432,2.10747 -1.46934,4.18875 -2.22471,6.16532c-0.11382,0.31416 -0.23799,0.62831 -0.36216,0.94247c0,0 -6.39474,-5.40611 -10.0267,5.61554a19.32907,24.45183 0 0 0 -2.2454,7.38267a13.8863,17.56657 0 0 1 -0.76571,3.03684a15.44877,19.54314 0 0 1 -6.91211,7.85391c-7.40879,4.29347 -37.33367,51.50854 -37.86139,63.73445a56.38336,71.32656 0 0 1 -1.90393,14.11085a66.37901,83.97135 0 0 0 -1.77976,33.36601a50.4646,63.83917 0 0 0 1.8315,10.64204c3.17667,12.21283 5.2979,35.00224 5.2979,35.00224l3.43536,39.55751a88.98823,112.57266 0 0 0 0.55876,16.34922c-3.50779,5.06577 -17.5907,26.17969 -12.21001,31.92613c4.13899,4.52909 11.38222,3.78297 15.44877,2.85359c-3.42501,10.72058 -8.81604,29.36052 -9.53002,42.16239c-1.03475,18.94101 1.76942,44.03424 6.20848,53.66836s19.23594,34.34775 19.23594,34.34775s-0.69328,33.9027 4.59428,46.22024s7.41913,37.86892 7.41913,37.86892s4.93574,21.57206 2.4627,29.50451s4.58393,14.52973 -2.82486,19.80494s-16.88707,124.17027 -16.88707,124.17027s-3.81822,77.92385 0,81.89007a3.8803,4.90869 0 0 0 0.65189,0.48432l0,26.17969s-2.64895,5.49773 8.12276,6.61037c7.37775,0.74612 28.28998,2.43471 40.69659,3.41645l9.6128,0.75921s22.76443,5.73335 32.82217,0s27.88643,-5.60245 25.23748,-20.7474a34.06387,43.09177 0 0 0 -1.40726,-6.0606c-2.90764,-9.39851 -7.84338,-10.47188 -16.93881,-13.08984c-0.52772,-0.14399 -1.03475,-0.27489 -1.50038,-0.37961c-9.58176,-2.10747 -12.72739,3.53426 -18.09772,-3.80914c-4.66671,-6.34857 -19.52567,-13.45636 -24.58559,-15.70781c0.12417,-0.47123 0.27938,-0.92938 0.40355,-1.4137a7.57435,9.58177 0 0 1 -3.83891,-2.36926l13.7104,1.09955l8.16415,0.6414s19.34977,4.88251 27.93816,0s23.6957,-4.75161 21.43995,-17.61893a29.19021,36.92645 0 0 0 -1.18996,-5.1574c-2.47304,-7.98481 -6.67412,-8.86182 -14.40368,-11.07401c-0.44494,-0.11781 -0.85884,-0.23562 -1.27274,-0.32725c-8.14346,-1.79331 -10.8131,2.99757 -15.37634,-3.23319c-3.91134,-5.31448 -16.25587,-11.27036 -20.69494,-13.29928c0,-2.90595 -3.10424,-7.04234 -5.05991,-11.19182c-2.29714,-4.84324 1.94532,-21.79459 1.94532,-21.79459l2.42131,-70.33174a10.74067,13.58726 0 0 1 2.89729,-1.04719s10.94762,-13.22074 8.47458,-27.30542a71.53205,90.4901 0 0 1 -0.78641,-12.86732c3.60092,-4.22802 8.55736,-10.47188 9.96461,-14.32029c2.29714,-6.27004 0,-36.65157 0,-36.65157l0,-116.17237l18.31502,2.34308l16.61803,2.15982l5.05991,0.65449l16.61803,2.12055l38.19251,4.88251l34.41568,-8.2466l14.89001,-3.56044l30.61816,-7.33031l0,-94.77048l31.6943,-6.62346zm-252.07468,-314.03847l-2.13158,-0.28798c0.70363,0.03927 1.44865,0.20944 2.13158,0.28798z"/>
   <path stroke="null" id="svg_10" fill="#efb7b9" d="m746.62243,598.54165c-10.34747,18.73157 -47.54662,8.80947 -47.54662,8.80947l-28.82805,-34.12523l-3.8803,-4.62072l6.50856,-17.48803s2.06949,0.71994 5.61868,2.00275c18.63579,6.84599 76.861,29.67468 68.12773,45.42176z"/>
   <path stroke="null" id="svg_11" opacity="0.1" d="m678.474,553.11989c-1.27274,5.60245 -4.75984,13.99304 -8.22624,20.106l-3.8803,-4.62072l6.50856,-17.48803s2.09019,0.71994 5.59798,2.00275z"/>
   <path stroke="null" id="svg_12" fill="#dce6f2" d="m579.60394,355.90829s-26.5723,14.90933 -25.26852,51.52163a477.16316,603.6251 0 0 0 6.08431,70.37101s-5.43242,55.09516 17.18715,69.29764s43.55249,25.87862 43.55249,25.87862s35.38834,4.81706 39.78602,6.80672s18.13911,-28.43114 15.60398,-33.16967s-35.01583,-14.67372 -39.15482,-22.57998s-13.7104,-12.78878 -13.7104,-12.78878s-9.88183,-7.56593 -10.55442,-14.39883s1.93498,-11.92485 2.59721,-14.92242s2.33853,-31.93922 2.33853,-31.93922s11.15457,-103.01708 -38.46154,-94.07671z"/>
   <path stroke="null" id="svg_13" opacity="0.1" d="m597.1429,476.29559s-36.45413,7.72301 -32.92564,23.86279c0,0 13.23441,-17.42258 32.92564,-23.86279z"/>
   <path stroke="null" id="svg_14" opacity="0.1" d="m597.42228,482.82742s-20.04305,20.69504 -16.12136,21.75532s16.12136,-21.75532 16.12136,-21.75532z"/>
   <path stroke="null" id="svg_15" opacity="0.1" d="m607.05577,490.03992s-5.37034,13.9145 -2.06949,12.97204s2.06949,-12.97204 2.06949,-12.97204z"/>
   <path stroke="null" id="svg_16" opacity="0.1" d="m679.81917,554.59904l-2.21436,-0.79848c0.6312,-2.61797 0.8071,-4.73852 0.28973,-5.72026c-2.53513,-4.73852 -34.99514,-14.66063 -39.12378,-22.57998s-13.7104,-12.78878 -13.7104,-12.78878s-9.88183,-7.56593 -10.55442,-14.39883s1.93498,-11.92485 2.59721,-14.92242s2.33853,-31.95231 2.33853,-31.95231s11.12353,-103.00399 -38.49258,-94.06362c0,0 -26.5723,14.92242 -25.27887,51.53472a475.82834,601.93651 0 0 0 6.09466,70.37101s-5.43242,55.09516 17.18715,69.29764s43.55249,25.87862 43.55249,25.87862s35.37799,4.80397 39.78602,6.80672c1.66594,0.75921 4.67706,-3.15465 7.62608,-8.53458l1.67629,1.97657l28.82805,34.11214s37.19915,9.93519 47.54662,-8.79638c8.74361,-15.76017 -49.47125,-38.58886 -68.14843,-45.42176z"/>
   <path stroke="null" id="svg_17" fill="#965d7b" d="m564.31038,218.4911a8.79535,11.12637 0 0 0 -2.86625,1.40061c-1.03475,1.08646 -1.03475,2.94522 -1.29343,4.56836a11.87889,15.02714 0 0 1 -2.06949,6.25695a7.43983,9.4116 0 0 0 3.44571,-0.71994a17.73556,22.43599 0 0 1 -1.03475,5.23594a3.35258,4.24111 0 0 0 3.10424,-2.39544a19.92922,25.21104 0 0 0 1.29343,-4.59454a2.99042,3.78297 0 0 1 0.49668,-1.30898c0.95197,-1.42679 2.72138,-0.78539 4.19072,-0.60213a6.88107,8.70475 0 0 0 6.29126,-3.82223c1.56247,-2.99757 1.65559,-10.66822 -2.06949,-11.47979c-3.89065,-0.81157 -6.31196,5.96897 -9.48863,7.46121z"/>
   <g stroke="null" transform="matrix(1.034746847945993,0,0,1.3089844738864036,-9741.2259996998,-9159.055233999865) " id="svg_18" opacity="0.1">
    <path stroke="null" id="svg_19" d="m9956.60584,7166.28602c0.09,-0.49 0.15,-1 0.26,-1.49l0,0c-0.95,0.83 -1,2.24 -1.25,3.49a11,11 0 0 1 -0.59,2.11a11.46,11.46 0 0 0 1.58,-4.11z"/>
    <path stroke="null" id="svg_20" d="m9956.92584,7174.54602a16.63,16.63 0 0 0 1,-4a7.16,7.16 0 0 1 -3.17,0.55a11.57,11.57 0 0 1 -1.15,2a7.12,7.12 0 0 0 3.32,-0.54a16.63,16.63 0 0 1 -1,4a3.25,3.25 0 0 0 3,-1.83a7.46,7.46 0 0 0 0.6,-1.43a3,3 0 0 1 -2.6,1.25z"/>
    <path stroke="null" id="svg_21" d="m9965.70584,7167.74602c-1.42,-0.14 -3.14,-0.63 -4.06,0.46a3.09,3.09 0 0 0 -0.48,1c-0.09,0.26 -0.17,0.53 -0.24,0.8c0.95,-0.75 2.49,-0.35 3.78,-0.22a6.68,6.68 0 0 0 6.08,-2.92a5.54,5.54 0 0 0 0.67,-1.57a6.66,6.66 0 0 1 -5.75,2.45z"/>
   </g>
   <polygon stroke="null" id="svg_22" fill="#dce6f2" points="595.4560546875,326.6000671386719 611.236328125,350.6064453125 609.1766967773438,374.8365783691406 590.1064453125,337.072509765625 595.4560546875,326.6000671386719 "/>
   <polygon stroke="null" id="svg_23" opacity="0.1" points="611.225830078125,350.6064453125 609.2909545898438,373.39654541015625 609.1670532226562,374.8365783691406 591.95849609375,340.7497253417969 590.1064453125,337.072509765625 590.6447143554688,336.01190185546875 595.4456787109375,326.6000671386719 596.51171875,328.22344970703125 611.225830078125,350.6064453125 "/>
   <path stroke="null" id="svg_24" fill="#efb7b9" d="m619.421,294.09804c-5.33929,1.9373 -10.4406,8.58694 -14.87966,16.66337a112.42525,142.22116 0 0 0 -8.02964,17.46185c-1.45899,3.69134 -2.74208,7.23868 -3.80787,10.32789l-0.74502,2.19909c-1.80046,5.37993 -2.80416,8.97963 -2.80416,8.97963s-40.8725,-38.87684 -34.40533,-41.49481c2.17297,-0.87702 5.02887,-6.76745 7.85373,-14.18939l0.35181,-0.94247c1.79011,-4.7647 3.54918,-10.07918 5.11165,-15.0795c3.19737,-10.27553 5.56694,-19.2028 5.56694,-19.2028s62.08481,29.3867 45.78755,35.27713z"/>
   <path stroke="null" id="svg_25" fill="#444053" d="m643.87207,256.6349s9.43689,21.59824 22.11254,18.65303s7.46052,-11.5976 7.46052,-11.5976l-29.57306,-7.05543z"/>
   <path stroke="null" id="svg_26" fill="#a36468" d="m625.58809,1004.26139c-8.36075,4.83015 -27.26558,0 -27.26558,0l-7.96755,-0.62831c-10.34747,-0.83775 -27.66913,-2.25145 -33.79483,-2.87977c-8.94021,-0.92938 -6.74655,-5.56318 -6.74655,-5.56318l0,-27.99918l43.37659,-13.90142s17.14576,7.42194 21.84351,13.90142c4.45976,6.17841 7.06732,1.42679 15.02452,3.20701c0.3932,0.09163 0.8071,0.19635 1.2417,0.32725c7.55365,2.186 11.65125,3.04993 14.07256,10.96929a29.07639,36.78246 0 0 1 1.16926,5.10504c2.23505,12.74951 -12.60322,12.65788 -20.95362,17.46185z"/>
   <path stroke="null" id="svg_27" opacity="0.1" d="m645.37245,981.69449a32.42897,41.02357 0 0 1 -4.88401,3.16774c-5.69111,3.28555 -11.10283,7.29104 -16.85603,10.39334s-11.95133,5.31448 -18.1805,4.72543c-3.25945,-0.30107 -6.59134,-1.30898 -9.70593,-0.1309a22.41262,28.3526 0 0 0 -5.39103,3.78297c-10.34747,-0.83775 -27.66913,-2.25145 -33.79483,-2.87977c-8.94021,-0.92938 -6.74655,-5.56318 -6.74655,-5.56318l0,-3.27246c0.32077,0 0.68293,-0.11781 1.09683,-0.15708a19.53602,24.71363 0 0 1 6.31196,1.19118c4.4908,1.5446 8.96091,3.06302 13.45171,4.58145a10.62685,13.44327 0 0 1 5.17373,-8.35132a16.49386,20.86521 0 0 1 8.34006,-2.42162c6.96385,0.11781 13.55518,4.29347 20.50868,4.71234a11.29944,14.29411 0 0 0 5.68076,-1.20427c0.95197,-0.60213 1.79011,-1.47915 2.72138,-2.14673a19.86714,25.1325 0 0 1 4.6874,-2.00275a103.22635,130.58429 0 0 0 13.39997,-5.47156c1.2417,-0.61522 2.69034,-1.72786 2.52478,-3.40336c-0.2173,-2.22527 -2.98007,-2.48707 -3.70439,-4.52909a2.06949,2.61797 0 0 1 0.08278,-2.3169c0.3932,0.09163 0.8071,0.19635 1.2417,0.32725c7.52261,2.186 11.62021,3.04993 14.04151,10.96929z"/>
   <path stroke="null" id="svg_28" fill="#a36468" d="m616.75135,1065.52186c-9.8301,5.68099 -32.07715,0 -32.07715,0l-9.36446,-0.69376c-12.12723,-0.98174 -32.55314,-2.61797 -39.76532,-3.39027c-10.52338,-1.09955 -7.93651,-6.54492 -7.93651,-6.54492l0,-32.9995l51.04406,-16.36231s20.17756,8.73093 25.70311,16.36231c5.24617,7.26486 8.27797,1.6755 17.68382,3.76988c0.46564,0.10472 0.95197,0.23562 1.45899,0.37961c8.88848,2.61797 13.7104,3.59971 16.55595,12.91968a33.21537,42.0184 0 0 1 1.37621,6.00824c2.56617,15.00096 -14.84862,14.88315 -24.67871,20.55106z"/>
   <path stroke="null" id="svg_29" opacity="0.1" d="m640.03316,1038.96256a38.52363,48.73349 0 0 1 -5.74285,3.73061c-6.69481,3.8615 -13.06885,8.57385 -19.8361,12.22591s-14.06221,6.24386 -21.39856,5.56318c-3.82856,-0.35343 -7.75025,-1.57078 -11.38222,-0.15708a26.38604,33.3791 0 0 0 -6.36369,4.50291c-12.12723,-0.98174 -32.55314,-2.61797 -39.76532,-3.39027c-10.52338,-1.09955 -7.93651,-6.54492 -7.93651,-6.54492l0,-3.84841a12.93434,16.36231 0 0 1 1.29343,-0.18326a22.70235,28.71912 0 0 1 7.42948,1.40061l15.82128,5.39302a12.52044,15.83871 0 0 1 6.13605,-9.83047a19.30838,24.42565 0 0 1 9.81975,-2.85359c8.1952,0.14399 15.94545,5.05268 24.1303,5.55009a13.35858,16.89899 0 0 0 6.66377,-1.40061c1.12787,-0.71994 2.06949,-1.75404 3.20772,-2.52634a22.50574,28.47041 0 0 1 5.5152,-2.35617a123.84885,156.67235 0 0 0 15.68676,-6.4402c1.45899,-0.73303 3.16633,-2.04202 2.96972,-4.00549c-0.25869,-2.61797 -3.50779,-2.93213 -4.36663,-5.34066a2.49374,3.15465 0 0 1 0.10347,-2.72269c0.46564,0.10472 0.95197,0.23562 1.45899,0.37961c8.88848,2.51325 13.7104,3.53426 16.55595,12.85423z"/>
   <path stroke="null" id="svg_30" fill="#444053" d="m594.50429,839.08063l-2.76277,82.24349s-4.13899,16.79427 -1.89359,21.59824s6.03257,9.59486 4.65636,12.43535s-17.93216,33.54927 -23.2818,21.76841s-10.62685,-62.83125 -10.62685,-62.83125l4.93574,-63.05378l28.97291,-12.16047z"/>
   <path stroke="null" id="svg_31" fill="#444053" d="m606.48666,634.17221l7.67782,12.98513l0,112.93918s2.2454,30.10664 0,36.32432s-13.62762,18.65303 -13.62762,18.65303l-9.57141,-62.17676l2.06949,-65.77647l13.45171,-52.94842z"/>
   <path stroke="null" id="svg_32" opacity="0.1" d="m594.50429,839.08063l-2.76277,82.24349s-4.13899,16.79427 -1.89359,21.59824s6.03257,9.59486 4.65636,12.43535s-17.93216,33.54927 -23.2818,21.76841s-10.62685,-62.83125 -10.62685,-62.83125l4.93574,-63.05378l28.97291,-12.16047z"/>
   <path stroke="null" id="svg_33" opacity="0.1" d="m606.48666,634.17221l7.67782,12.98513l0,112.93918s2.2454,30.10664 0,36.32432s-13.62762,18.65303 -13.62762,18.65303l-9.57141,-62.17676l2.06949,-65.77647l13.45171,-52.94842z"/>
   <path stroke="null" id="svg_34" fill="#444053" d="m614.16448,586.00158l0,61.09031l-8.61944,47.55541s-2.76277,114.75867 -0.35181,128.71244s-8.27797,27.05671 -8.27797,27.05671s-6.20848,0.87702 -6.20848,6.97689s-10.34747,23.56172 -10.34747,23.56172l0.34147,34.0336s4.4908,63.70827 -2.41096,75.9211s2.41096,13.96686 2.41096,13.96686c-8.61944,35.77455 -50.00932,27.48867 -53.74475,23.56172s0,-81.15704 0,-81.15704s9.25064,-117.8086 16.49386,-123.04454s0.35181,-11.78086 2.76277,-19.63477s-2.41096,-29.22962 -2.41096,-29.22962s-2.06949,-25.31576 -7.24323,-37.52858s-4.4908,-45.81446 -4.4908,-45.81446s-14.48646,-24.43874 -18.791,-34.0336s-7.07767,-34.46556 -6.04292,-53.2364c0.70363,-12.68406 5.97049,-31.15383 9.31272,-41.78278c1.60386,-5.09195 2.76277,-8.39059 2.76277,-8.39059l0.98301,0.32725l56.51787,18.71848l37.35436,12.3699z"/>
   <path stroke="null" id="svg_35" opacity="0.1" d="m619.421,294.09804c-5.33929,1.9373 -10.4406,8.58694 -14.87966,16.66337l-1.15892,0a36.96116,46.75693 0 0 1 -32.07715,-23.47009a36.40239,46.05007 0 0 1 -3.24911,-9.35924c3.19737,-10.27553 5.56694,-19.2028 5.56694,-19.2028s62.09516,29.47833 45.7979,35.36876z"/>
   <path stroke="null" id="svg_36" fill="#efb7b9" d="m640.37462,261.37343a36.9922,46.79619 0 1 1 -69.20387,-22.93341a36.14371,45.72283 0 0 1 3.91134,-7.14706a37.43714,47.35906 0 0 1 8.50562,-9.45087a36.9922,46.79619 0 0 1 56.73517,36.10179c0.02069,1.15191 0.05174,2.29072 0.05174,3.42954z"/>
   <path stroke="null" id="svg_37" opacity="0.1" d="m609.29083,373.39632l-0.12417,1.43988l-17.20784,-34.0336c-1.80046,5.37993 -2.80416,8.97963 -2.80416,8.97963s-40.8725,-38.9292 -34.40533,-41.54717c2.17297,-0.87702 5.02887,-6.76745 7.85373,-14.18939l0.35181,-0.94247c3.00077,11.30963 20.43625,33.91579 27.68983,42.97396c0.83814,1.04719 1.53143,1.91112 2.06949,2.53943l1.10718,1.30898l0.57946,0.73303c2.6386,3.44263 13.77248,18.62685 14.89001,32.7377z"/>
   <path stroke="null" id="svg_38" fill="#dce6f2" d="m622.15273,488.87493l-1.88324,76.66722l-0.33112,13.65271s-22.30914,-2.61797 -43.12825,-5.49773c-16.7629,-2.3169 -32.56348,-4.81706 -34.99514,-6.28313c-3.10424,-1.84567 -9.75766,-3.27246 -15.00383,-4.17566c-4.05621,-0.69376 -7.24323,-1.06028 -7.24323,-1.06028s-1.18996,0.44505 -3.02146,0.86393c-3.99412,0.91629 -11.00971,1.66241 -15.09696,-2.82741c-5.22547,-5.74644 8.50562,-26.62474 11.93063,-31.63815l0.75537,-1.08646l-1.29343,-15.11877l-3.36293,-39.20408s-2.06949,-22.57998 -5.17373,-34.68809a50.57843,63.98316 0 0 1 -1.79011,-10.53733a66.72048,84.40332 0 0 1 1.73837,-33.06495a56.99386,72.09886 0 0 0 1.86254,-13.99304c0.51737,-12.10811 29.74897,-58.9043 36.9922,-63.1585a15.35564,19.42533 0 0 0 7.40879,-9.34615a14.11395,17.85455 0 0 0 1.12787,-4.07094c3.10424,-17.0168 10.95797,-10.26244 10.95797,-10.26244c1.89359,13.31237 31.20796,48.55023 31.20796,48.55023l0.57946,0.73303c2.90764,3.76988 15.86267,21.46735 14.94174,36.57303a35.04688,44.3353 0 0 0 1.95567,16.54556a221.17714,279.79543 0 0 1 10.19226,73.30313l0.67259,19.12426z"/>
   <path stroke="null" id="svg_39" opacity="0.1" d="m580.61799,397.83506s-7.24323,22.25274 -12.67565,25.85244s15.26252,7.59211 12.67565,-25.85244z"/>
   <path stroke="null" id="svg_40" opacity="0.1" d="m586.05041,439.39532s-16.55595,2.61797 -16.55595,6.54492s16.55595,-6.54492 16.55595,-6.54492z"/>
   <path stroke="null" id="svg_41" opacity="0.1" d="m603.38242,464.92051s-24.05786,64.79473 -30.78372,66.75821s30.78372,-66.75821 30.78372,-66.75821z"/>
   <path stroke="null" id="svg_42" opacity="0.1" d="m593.35572,345.88146l-19.89818,10.94311l-24.01647,-45.893a14.11395,17.85455 0 0 0 1.12787,-4.07094c3.10424,-17.0168 10.95797,-10.26244 10.95797,-10.26244c1.89359,13.31237 31.20796,48.55023 31.20796,48.55023l0.62085,0.73303z"/>
   <path stroke="null" id="svg_43" fill="#dce6f2" d="m594.39047,343.2635l-19.89818,10.94311l-24.01647,-45.893a14.11395,17.85455 0 0 0 1.12787,-4.07094c3.10424,-17.0168 10.95797,-10.26244 10.95797,-10.26244c1.89359,13.31237 31.20796,48.55023 31.20796,48.55023l0.62085,0.73303z"/>
   <path stroke="null" id="svg_44" opacity="0.1" d="m619.93837,579.19486s-22.30914,-2.61797 -43.12825,-5.49773l37.35436,12.3699l0,14.39883c-1.6349,1.87185 -3.0525,2.8405 -3.97343,2.34308c-4.30455,-2.29072 -39.4342,-9.49014 -39.4342,-9.49014s-20.40521,-13.08984 -42.42462,-28.79766a17.00089,21.50661 0 0 1 -1.55212,-1.23045a24.46142,30.94439 0 0 1 -6.51891,-8.25969c-4.06656,-7.44812 -6.05327,-17.0168 -6.91211,-26.40222a90.25062,114.16963 0 0 1 -0.53807,-16.20523a105.03715,132.87501 0 0 1 1.32448,-18.31269a476.06633,602.23758 0 0 1 -3.10424,-70.68516c0.25869,-36.65157 27.42079,-49.74141 27.42079,-49.74141c49.92654,-5.56318 34.44672,96.5376 34.44672,96.5376s-2.88694,28.79766 -3.67335,31.74287s-3.61127,7.85391 -3.22841,14.72608s9.92322,15.09259 9.92322,15.09259s9.31272,5.52391 13.15163,13.70507c2.79382,6.03442 20.94328,14.21557 31.19762,20.05364l-0.33112,13.65271z"/>
   <path stroke="null" id="svg_45" opacity="0.1" d="m636.65988,232.31397a11.71333,14.8177 0 0 1 -1.03475,6.25695a30.57677,38.68049 0 0 1 -1.84185,4.65998a16.96985,21.46735 0 0 1 -4.53219,7.12088c-2.39027,2.15982 -5.41173,2.76196 -8.27797,3.63898s-5.84632,2.27763 -7.48122,5.36684a14.83827,18.77084 0 0 0 -1.74872,6.41402a10.90623,13.7967 0 0 1 -2.06949,6.20459a4.06656,5.14431 0 0 1 -4.84262,1.46606a4.89435,6.1915 0 0 1 -1.87289,-3.04993c-1.17961,-3.36409 -1.47969,-7.0947 -1.95567,-10.72058s-1.14857,-7.35649 -2.90764,-10.27553s-4.87366,-4.84324 -7.63643,-3.70443a7.35705,9.30688 0 0 0 -4.13899,5.07886a23.01277,29.11181 0 0 0 -1.56247,7.22559q-1.92463,13.32546 -4.54254,26.49385a1.92463,2.43471 0 0 1 -0.34147,0.99483a1.49004,1.88494 0 0 1 -1.03475,0.54977c-2.31783,0.3927 -4.54254,-1.66241 -6.88107,-1.43988a3.95273,5.00032 0 0 0 -0.71398,0.14399a36.9715,46.77002 0 0 1 3.73544,-53.40657l0.18625,-0.06545a11.15457,14.11085 0 0 0 4.13899,-3.29864a43.68701,55.26532 0 0 0 4.13899,-6.0606l0.8278,-1.30898a47.1948,59.70278 0 0 1 8.07103,-9.69957a8.27797,10.47188 0 0 1 2.75243,-1.88494a8.15381,10.3148 0 0 1 2.60756,-0.10472a65.77886,83.21214 0 0 0 10.77171,0.5105a69.11074,87.42707 0 0 1 7.564,-0.96865c6.54995,0.23562 12.13758,6.08678 16.27657,12.5008c2.22471,3.28555 4.21142,7.06852 4.34594,11.36199z"/>
   <path stroke="null" id="svg_46" fill="#965d7b" d="m566.33848,239.68355c-1.4383,2.98448 -4.03551,5.01341 -5.00817,8.28587c-1.42795,4.75161 0.98301,10.66822 -1.23135,14.90933c-0.73467,1.42679 -1.94532,2.48707 -2.35922,4.1233c-0.70363,2.76196 1.221,5.70717 0.72432,8.54767s-3.45605,5.23594 -2.66965,8.01098a4.13899,5.23594 0 0 0 2.27644,2.61797a8.89882,11.25727 0 0 0 5.17373,1.45297c2.82486,-0.58904 4.92539,-4.09712 7.79164,-4.35892c2.32818,-0.20944 4.55289,1.83258 6.87072,1.45297a1.55212,1.96348 0 0 0 1.03475,-0.56286a1.79011,2.26454 0 0 0 0.34147,-0.99483q2.60756,-13.15529 4.55289,-26.49385a22.55748,28.53586 0 0 1 1.55212,-7.22559a7.41913,9.38542 0 0 1 4.13899,-5.07886c2.76277,-1.12573 5.86701,0.78539 7.63643,3.70443s2.442,6.64964 2.91799,10.27553s0.77606,7.35649 1.94532,10.72058a4.94609,6.25695 0 0 0 1.88324,3.06302c1.55212,1.13882 3.64231,0.23562 4.83227,-1.46606a10.79241,13.65271 0 0 0 2.06949,-6.21768a14.77618,18.6923 0 0 1 1.74872,-6.40093c1.6349,-3.0892 4.62532,-4.48982 7.48122,-5.36684s5.86701,-1.49224 8.27797,-3.65207a17.03193,21.54588 0 0 0 4.53219,-7.10779c1.53143,-3.37718 2.95938,-7.04234 2.83521,-10.93002c-0.13452,-4.24111 -2.12123,-8.02407 -4.24246,-11.32272c-4.13899,-6.41402 -9.73697,-12.26518 -16.28692,-12.48771a64.36125,81.41883 0 0 0 -7.564,0.96865a64.74411,81.90316 0 0 1 -10.77171,-0.52359a8.46423,10.70749 0 0 0 -2.60756,0.11781a7.80199,9.86974 0 0 0 -2.74208,1.88494a47.2155,59.72896 0 0 0 -8.08137,9.68649a59.30134,75.0179 0 0 1 -4.98748,7.33031a11.227,14.20248 0 0 1 -4.13899,3.31173c-1.03475,0.36652 -2.06949,0.10472 -3.0525,0.5105c-3.0525,1.21736 -3.45605,6.25695 -4.87366,9.21525z"/>
   <path stroke="null" id="svg_47" opacity="0.1" d="m665.98461,275.27484c-8.27797,1.92421 -15.13835,-6.54492 -18.93587,-12.72333a40.58277,51.33837 0 0 1 -3.17667,-5.91661l28.41415,6.78054l1.14857,0.27489s5.22547,8.65239 -7.45018,11.58451z"/>
   <g stroke="null" transform="matrix(1.034746847945993,0,0,1.3089844738864036,-9741.2259996998,-9159.055233999865) " id="svg_48" opacity="0.1">
    <path stroke="null" id="svg_49" d="m9953.82584,7204.71602a8.33,8.33 0 0 0 -0.58,-3.84c0,0.1 -0.09,0.2 -0.12,0.3c-0.43,1.34 0.15,2.73 0.52,4.12a3,3 0 0 0 0.18,-0.58z"/>
    <path stroke="null" id="svg_50" d="m9956.20584,7188.34602a22.22,22.22 0 0 0 0.08,4.15a22.28,22.28 0 0 0 -0.08,-4.15z"/>
    <path stroke="null" id="svg_51" d="m10025.65584,7178.99602a16.4,16.4 0 0 1 -4.38,5.44c-2.31,1.65 -5.22,2.11 -8,2.78s-5.65,1.74 -7.23,4.1a14.41,14.41 0 0 0 -1.69,4.9a10.47,10.47 0 0 1 -2,4.75c-1.15,1.3 -3.17,2 -4.67,1.12a4.78,4.78 0 0 1 -1.82,-2.34c-1.13,-2.57 -1.43,-5.41 -1.88,-8.19s-1.12,-5.62 -2.82,-7.85s-4.71,-3.7 -7.38,-2.83a7.14,7.14 0 0 0 -4,3.88a21.8,21.8 0 0 0 -1.5,5.52q-1.87,10.19 -4.4,20.24a1.73,1.73 0 0 1 -0.33,0.76a1.5,1.5 0 0 1 -1,0.43c-2.24,0.29 -4.39,-1.27 -6.64,-1.11c-2.77,0.2 -4.8,2.88 -7.53,3.32a8.45,8.45 0 0 1 -5,-1.11a5.35,5.35 0 0 1 -1.83,-1.3a2.7,2.7 0 0 0 -0.37,2.33a3.9,3.9 0 0 0 2.2,2a8.45,8.45 0 0 0 5,1.11c2.73,-0.44 4.76,-3.12 7.53,-3.32c2.25,-0.16 4.4,1.4 6.64,1.11a1.5,1.5 0 0 0 1,-0.43a1.73,1.73 0 0 0 0.33,-0.76q2.52,-10 4.4,-20.24a21.8,21.8 0 0 1 1.5,-5.52a7.14,7.14 0 0 1 4,-3.88c2.67,-0.87 5.67,0.6 7.38,2.83s2.36,5.08 2.82,7.85s0.75,5.62 1.88,8.19a4.78,4.78 0 0 0 1.82,2.34c1.5,0.87 3.52,0.18 4.67,-1.12a10.47,10.47 0 0 0 2,-4.75a14.41,14.41 0 0 1 1.69,-4.9c1.58,-2.36 4.47,-3.42 7.23,-4.1s5.67,-1.13 8,-2.78a16.4,16.4 0 0 0 4.38,-5.44c1.48,-2.57 2.86,-5.37 2.74,-8.34a10.74,10.74 0 0 0 -0.12,-1.14a19.65,19.65 0 0 1 -2.62,6.45z"/>
   </g>
   <path stroke="null" id="svg_52" opacity="0.1" d="m635.66652,238.53165a36.55761,46.24642 0 0 1 4.60462,19.43842c-9.21959,-6.54492 -17.89077,-13.73125 -22.26775,-16.23141c-7.62608,-4.35892 -36.14371,-3.70443 -46.86368,-3.29864a36.14371,45.72283 0 0 1 3.91134,-7.14706a37.43714,47.35906 0 0 1 8.53666,-9.45087a37.01289,46.82237 0 0 1 52.13055,16.66337l-0.05174,0.02618z"/>
   <path stroke="null" id="svg_53" opacity="0.1" d="m668.57147,269.72475c-4.97713,1.9373 -13.0999,-1.8064 -21.52273,-7.17323a40.58277,51.33837 0 0 1 -3.17667,-5.91661l28.41415,6.78054c1.88324,1.62314 2.35922,3.94004 -3.71474,6.30931z"/>
   <path stroke="null" id="svg_54" fill="#444053" d="m605.58643,193.14916s-27.1621,-1.96348 -34.79854,16.68955l-1.23135,16.53247l-2.06949,-0.28798l-0.4139,11.24418s41.51404,-2.29072 50.96128,3.10229s38.80301,32.56753 50.56808,27.98609s-1.03475,-8.83565 -1.03475,-8.83565s-16.19379,-8.67857 -16.19379,-15.48529s-4.01482,-42.76452 -45.78755,-50.94568z"/>
   <path stroke="null" id="svg_55" opacity="0.1" d="m553.1972,806.01569s17.33201,21.271 24.83392,19.63477c0,0 -21.21231,-2.29072 -24.83392,-19.63477z"/>
   <path stroke="null" id="svg_56" opacity="0.1" d="m549.57559,815.87234s1.55212,10.94311 5.69111,9.86974s-5.69111,-9.86974 -5.69111,-9.86974z"/>
   <path stroke="null" id="svg_57" opacity="0.1" d="m576.73769,998.76365s-24.60628,24.21621 -20.45695,24.87071s20.45695,-24.87071 20.45695,-24.87071z"/>
   <polygon stroke="null" id="svg_58" fill="#6c63ff" points="609.653076171875,518.1438598632812 689.3284912109375,501.74176025390625 689.3284912109375,597.1675415039062 613.6259765625,592.15380859375 609.653076171875,518.1438598632812 "/>
   <polygon stroke="null" id="svg_59" opacity="0.05" points="609.653076171875,518.1438598632812 689.3284912109375,501.74176025390625 689.3284912109375,597.1675415039062 613.6259765625,592.15380859375 609.653076171875,518.1438598632812 "/>
   <polygon stroke="null" id="svg_60" fill="#6c63ff" points="689.3284912109375,501.74176025390625 784.876953125,510.7872314453125 779.5892333984375,593.8290405273438 689.3284912109375,597.1675415039062 689.3284912109375,501.74176025390625 "/>
   <polygon stroke="null" id="svg_61" opacity="0.1" points="689.3284912109375,501.74176025390625 784.876953125,510.7872314453125 779.5892333984375,593.8290405273438 689.3284912109375,597.1675415039062 689.3284912109375,501.74176025390625 "/>
   <polygon stroke="null" id="svg_62" fill="#6c63ff" points="718.7046508789062,472.61785888671875 689.3284912109375,501.74176025390625 784.876953125,510.7872314453125 800.4913330078125,480.98223876953125 718.7046508789062,472.61785888671875 "/>
   <polygon stroke="null" id="svg_63" fill="#6c63ff" points="580.8046264648438,486.3359680175781 652.533203125,475.2875061035156 689.3284912109375,501.74176025390625 609.653076171875,518.1438598632812 580.8046264648438,486.3359680175781 "/>
   <polygon stroke="null" id="svg_64" fill="#6c63ff" points="706.795166015625,526.5216674804688 706.795166015625,656.9880981445312 669.4714965820312,652.1441650390625 653.2364501953125,650.050537109375 648.2907104492188,649.3960571289062 632.0655517578125,647.2882080078125 609.653076171875,644.3822021484375 609.653076171875,518.1438598632812 689.3179931640625,525.0030517578125 706.795166015625,526.5216674804688 "/>
   <polygon stroke="null" id="svg_65" fill="#6c63ff" points="784.876953125,510.7872314453125 784.876953125,638.0208740234375 754.9625244140625,645.28515625 740.4140014648438,648.8199462890625 706.795166015625,656.9880981445312 706.795166015625,526.5216674804688 784.876953125,510.7872314453125 "/>
   <polygon stroke="null" id="svg_66" opacity="0.05" points="784.876953125,510.7872314453125 784.876953125,638.0208740234375 754.9625244140625,645.28515625 740.4140014648438,648.8199462890625 706.795166015625,656.9880981445312 706.795166015625,526.5216674804688 784.876953125,510.7872314453125 "/>
   <polygon stroke="null" id="svg_67" fill="#6c63ff" points="580.8046264648438,545.6068115234375 609.653076171875,518.1438598632812 706.795166015625,526.5216674804688 692.4945068359375,556.994140625 580.8046264648438,545.6068115234375 "/>
   <polygon stroke="null" id="svg_68" opacity="0.1" fill="#fff" points="580.8046264648438,545.6068115234375 609.653076171875,518.1438598632812 706.795166015625,526.5216674804688 692.4945068359375,556.994140625 580.8046264648438,545.6068115234375 "/>
   <polygon stroke="null" id="svg_69" fill="#6c63ff" points="784.876953125,510.7872314453125 706.795166015625,526.5216674804688 732.2088623046875,555.31884765625 815.8468627929688,537.569091796875 784.876953125,510.7872314453125 "/>
   <polygon stroke="null" id="svg_70" opacity="0.1" fill="#fff" points="784.876953125,510.7872314453125 706.795166015625,526.5216674804688 732.2088623046875,555.31884765625 815.8468627929688,537.569091796875 784.876953125,510.7872314453125 "/>
   <polygon stroke="null" id="svg_71" opacity="0.1" fill="#fff" points="754.9625244140625,645.28515625 740.4140014648438,648.8199462890625 740.4140014648438,621.6319580078125 754.0419311523438,617.2859497070312 754.9625244140625,645.28515625 "/>
   <polygon stroke="null" id="svg_72" opacity="0.1" fill="#fff" points="669.4714965820312,634.1592407226562 669.4714965820312,652.1441650390625 653.2364501953125,650.050537109375 653.2364501953125,634.1592407226562 669.4714965820312,634.1592407226562 "/>
   <polygon stroke="null" id="svg_73" opacity="0.1" fill="#fff" points="648.2907104492188,639.8264770507812 648.2907104492188,649.3960571289062 632.0655517578125,647.2882080078125 632.0655517578125,639.8264770507812 648.2907104492188,639.8264770507812 "/>
   <path stroke="null" id="svg_74" opacity="0.1" d="m697.02701,624.61662c-11.12353,17.99854 -47.85704,5.56318 -47.85704,5.56318l-27.29662,-36.02325l-3.70439,-4.88251l7.24323,-17.0168s2.06949,0.86393 5.52555,2.38235c18.29432,8.08952 75.45374,34.83208 66.08928,49.97703z"/>
   <path stroke="null" id="svg_75" fill="#efb7b9" d="m695.99226,621.99865c-11.12353,17.99854 -47.85704,5.56318 -47.85704,5.56318l-27.29662,-36.02325l-3.70439,-4.88251l7.24323,-17.0168s2.06949,0.86393 5.52555,2.38235c18.29432,8.08952 75.45374,34.83208 66.08928,49.97703z"/>
   <path stroke="null" id="svg_76" opacity="0.1" d="m629.86159,572.02162c-1.51073,5.49773 -5.34964,13.63962 -9.06438,19.51696l-3.70439,-4.88251l7.24323,-17.0168s2.07984,0.86393 5.52555,2.38235z"/>
   <path stroke="null" id="svg_77" fill="#dce6f2" d="m539.4868,368.44836s-27.1621,13.08984 -27.42079,49.74141a476.06633,602.23758 0 0 0 3.10424,70.68516s-7.7606,54.6501 14.22777,70.35792s42.42462,28.79766 42.42462,28.79766s35.12966,7.19941 39.44455,9.49014s19.30838,-27.16143 16.9802,-32.07012s-34.31221,-17.0168 -38.10973,-25.19795s-13.15163,-13.69198 -13.15163,-13.69198s-9.54037,-8.23351 -9.92322,-15.10568s2.43166,-11.78086 3.22841,-14.72608s3.6837,-31.74287 3.6837,-31.74287s15.43842,-102.16624 -34.48811,-96.5376z"/>
   <path stroke="null" id="svg_78" opacity="0.1" d="m551.90377,489.79122s-36.73351,5.23594 -33.88796,21.59824c0,0 13.95873,-16.50629 33.88796,-21.59824z"/>
   <path stroke="null" id="svg_79" opacity="0.1" d="m551.90377,496.33614s-20.85015,19.30752 -17.02159,20.61651s17.02159,-20.61651 17.02159,-20.61651z"/>
   <path stroke="null" id="svg_80" opacity="0.1" d="m561.21649,504.19005s-5.94979,13.5349 -2.58687,12.82805s2.58687,-12.82805 2.58687,-12.82805z"/>
   <path stroke="null" id="svg_81" fill="#6c63ff" d="m943.67962,210.61101s-39.32038,-2.99757 -34.7261,31.89995c0,0 -0.92092,6.16532 3.49744,8.96654c0,0 0.07243,-2.61797 4.03551,-1.71477a18.11842,22.92032 0 0 0 4.2735,0.2618a8.86778,11.218 0 0 0 5.23582,-2.73578l0,0s11.06144,-5.77262 15.36599,-28.65367c0,0 3.18702,-5.00032 3.10424,-6.28313l-6.64307,3.59971s2.2661,6.0606 0.47598,11.10019c0,0 -0.20695,-10.87766 -1.49004,-10.62895c-0.25869,0 -3.44571,2.10747 -3.44571,2.10747s3.901,10.55041 0.95197,18.23415c0,0 1.11753,-13.01131 -2.17297,-17.47494l-4.67706,3.45572s4.56323,10.90384 1.46934,19.80494c0,0 0.79676,-13.65271 -2.45235,-18.96719l-4.24246,4.17566s4.2942,10.75985 1.67629,18.14252c0,0 -0.34147,-15.89107 -2.59721,-17.09534c0,0 -3.70439,4.13639 -4.26316,5.83807c0,0 2.92833,7.85391 1.10718,11.92485c0,0 -1.11753,-10.58968 -2.06949,-10.64204c0,0 -3.69405,7.01616 -4.0769,11.78086a20.13617,25.47284 0 0 1 3.17667,-12.48771a11.08214,14.01922 0 0 0 -5.64972,3.70443s0.56911,-4.96105 6.5603,-5.39302c0,0 3.10424,-5.32757 3.86995,-5.65481c0,0 -5.96014,-0.62831 -9.57141,1.40061c0,0 3.17667,-4.67307 10.66824,-2.61797l4.13899,-4.31965s-7.84338,-1.30898 -11.17527,0.14399c0,0 3.82856,-4.13639 12.30314,-1.12573l4.55289,-3.44263s-6.68446,-1.83258 -10.66824,-1.165c0,0 4.20107,-2.86668 12.00306,0.23562l3.25945,-1.84567s-4.9047,-1.21736 -6.33265,-1.4137s-1.51073,-0.69376 -1.51073,-0.69376a16.92846,21.41499 0 0 1 9.1989,1.30898s6.98454,-3.18083 6.83968,-3.73061z"/>
   <path stroke="null" id="svg_82" opacity="0.1" fill="#6c63ff" d="m1063.15149,385.151s-39.32038,-2.99757 -34.7261,31.89995c0,0 -0.92092,6.16532 3.49744,8.96654c0,0 0.07243,-2.61797 4.04586,-1.71477a18.11842,22.92032 0 0 0 4.2735,0.2618a8.85743,11.20491 0 0 0 5.17373,-2.72269l0,0s11.07179,-5.78571 15.37634,-28.66676c0,0 3.17667,-4.98723 3.0525,-6.27004l-6.64307,3.58662s2.2661,6.0606 0.48633,11.10019c0,0 -0.2173,-10.87766 -1.49004,-10.62895c-0.25869,0 -3.45605,2.10747 -3.45605,2.10747s3.91134,10.5635 0.96231,18.23415c0,0 1.11753,-13.01131 -2.18332,-17.47494l-4.62532,3.41645s4.56323,10.90384 1.46934,19.80494c0,0 0.79676,-13.65271 -2.45235,-18.96719l-4.23211,4.18875s4.28385,10.74676 1.67629,18.12943c0,0 -0.34147,-15.89107 -2.59721,-17.09534c0,0 -3.70439,4.13639 -4.2735,5.83807c0,0 2.93868,7.85391 1.11753,11.92485c0,0 -1.11753,-10.58968 -2.06949,-10.64204c0,0 -3.69405,7.01616 -4.0769,11.78086a20.19826,25.55138 0 0 1 3.18702,-12.48771a11.13388,14.08467 0 0 0 -5.66007,3.70443s0.57946,-4.96105 6.57064,-5.39302c0,0 3.0525,-5.32757 3.86995,-5.65481c0,0 -5.96014,-0.62831 -9.57141,1.40061c0,0 3.17667,-4.67307 10.65789,-2.55252l4.13899,-4.31965s-7.85373,-1.30898 -11.17527,0.14399c0,0 3.82856,-4.13639 12.30314,-1.12573l4.55289,-3.44263s-6.69481,-1.81949 -10.67859,-1.165c0,0 4.21142,-2.86668 12.01341,0.23562l3.25945,-1.84567s-4.9047,-1.21736 -6.343,-1.4137s-1.51073,-0.69376 -1.51073,-0.69376a16.9595,21.45426 0 0 1 9.20925,1.30898s6.99489,-3.20701 6.87072,-3.75679z"/>
   <path stroke="null" id="svg_83" opacity="0.1" fill="#6c63ff" d="m824.28018,354.16734s9.05403,-48.55023 -18.92552,-48.7204c0,0 -4.64601,-2.19909 -7.57435,2.82741c0,0 1.99706,0.53668 0.64154,5.32757a18.41849,23.29992 0 0 0 -0.93127,5.23594a8.88848,11.24418 0 0 0 1.23135,6.97689l0,0s2.61791,14.79152 19.66019,24.05913c0,0 3.35258,4.81706 4.36663,4.86942l-1.65559,-8.888s-5.11165,1.79331 -8.73326,-1.30898c0,0 8.51597,1.58387 8.52631,0c0,-0.32725 -1.03475,-4.65998 -1.03475,-4.65998s-8.88848,3.06302 -14.37263,-1.92421c0,0 9.94392,3.6128 13.98978,0.27489l-1.86254,-6.4402s-9.31272,3.83532 -15.68676,-1.5446c0,0 10.50268,3.32482 15.20043,0.18326l-2.53513,-5.99515s-9.10577,3.50808 -14.41402,-1.00792c0,0 12.41696,2.27763 13.76213,-0.31416c0,0 -2.58687,-5.32757 -3.81822,-6.3224c0,0 -6.58099,2.32999 -9.47828,-0.6414c0,0 8.43319,0.40579 8.62979,-0.71994c0,0 -4.83227,-5.7988 -8.51597,-7.10779a20.28104,25.6561 0 0 1 9.1989,6.09987a11.16492,14.12394 0 0 0 -1.92463,-7.68374s3.76648,1.57078 3.10424,9.16289c0,0 3.62161,4.71234 3.73544,5.78571c0,0 1.50038,-7.31722 0.53807,-12.17356c0,0 3.10424,4.7647 0.17591,13.73125l2.64895,5.95588s2.40061,-9.55559 1.79011,-13.95377c0,0 2.57652,5.47156 -1.221,15.52456l1.91428,6.27004s2.55582,-8.03716 2.72138,-13.08984c0,0 1.52108,5.73335 -2.23505,14.93551l0.88988,4.37201s1.77976,-5.90352 2.17297,-7.65756s0.79676,-1.76713 0.79676,-1.76713a16.94915,21.44117 0 0 1 -2.57652,11.25727s1.35552,9.13671 1.80046,9.07126z"/>
   <path stroke="null" id="svg_84" opacity="0.1" fill="#6c63ff" d="m738.16855,370.7129s-31.58047,-29.88412 -42.86956,2.48707c0,0 -3.44571,4.516 -0.97266,9.9221c0,0 1.17961,-2.10747 4.13899,1.38752a18.11842,22.92032 0 0 0 3.45605,3.19392a8.87813,11.23109 0 0 0 5.55659,1.30898l0,0s11.75472,2.86668 25.28921,-13.24692c0,0 4.83227,-1.96348 5.28756,-3.11538l-7.12941,-1.58387s-0.74502,6.63655 -4.41837,9.60795c0,0 4.54254,-9.24143 3.36293,-9.90901c-0.23799,-0.14399 -3.79752,-0.65449 -3.79752,-0.65449s-1.32448,11.54524 -7.11906,15.90416c0,0 6.59134,-10.09227 5.77389,-16.1136l-5.41173,-0.36652s-0.92092,12.29136 -7.37775,17.57966c0,0 6.59134,-10.85148 6.20848,-17.55348l-5.35999,0.54977s-1.08648,11.95103 -6.47752,16.29686c0,0 6.61203,-13.50872 5.25651,-16.07433c0,0 -4.89435,0.87702 -6.10501,1.89803c0,0 -0.94162,8.56076 -4.25281,10.73367c0,0 3.67335,-9.62104 2.92833,-10.28862c0,0 -6.13605,3.28555 -8.54701,7.02925a20.20861,25.56447 0 0 1 8.09172,-8.22042a11.14422,14.09776 0 0 0 -6.33265,-0.83775s2.62826,-3.7437 7.82269,0.06545c0,0 4.86331,-2.3169 5.69111,-2.02893c0,0 -4.7081,-4.67307 -8.60909,-5.48464c0,0 4.69775,-1.70168 10.0267,5.23594l5.37034,-0.69376s-5.97049,-6.54492 -9.3955,-7.64447c0,0 4.99783,-0.79848 10.76137,7.6052l5.2979,0.30107s-4.79088,-6.17841 -8.40214,-8.40368c0,0 4.74949,0.52359 9.92322,8.54767l3.52849,0.71994s-3.56988,-4.42437 -4.6874,-5.57627s-0.96231,-1.63623 -0.96231,-1.63623a17.00089,21.50661 0 0 1 7.12941,7.48739s7.19149,2.10747 7.32601,1.57078z"/>
   <path stroke="null" id="svg_85" opacity="0.1" fill="#6c63ff" d="m843.30917,93.0642s-31.58047,-29.89721 -42.86956,2.48707c0,0 -3.44571,4.516 -0.97266,9.9221c0,0 1.17961,-2.10747 4.13899,1.38752a18.40815,23.28683 0 0 0 3.4664,3.18083a8.86778,11.218 0 0 0 5.55659,1.30898l0,0s11.75472,2.86668 25.28921,-13.26001c0,0 4.83227,-1.95039 5.27721,-3.11538l-7.12941,-1.55769s-0.73467,6.63655 -4.41837,9.60795c0,0 4.55289,-9.24143 3.37327,-9.90901c-0.23799,-0.14399 -3.79752,-0.65449 -3.79752,-0.65449s-1.36587,11.57142 -7.16045,15.90416c0,0 6.58099,-10.09227 5.77389,-16.1136l-5.41173,-0.36652s-0.93127,12.29136 -7.37775,17.56657c0,0 6.59134,-10.85148 6.20848,-17.55348l-5.34964,0.54977s-1.09683,11.96412 -6.48786,16.30995c0,0 6.62238,-13.50872 5.26686,-16.07433c0,0 -4.89435,0.87702 -6.10501,1.89803c0,0 -0.94162,8.56076 -4.25281,10.73367c0,0 3.67335,-9.62104 2.92833,-10.30171c0,0 -6.13605,3.29864 -8.54701,7.04234a20.11548,25.44666 0 0 1 8.09172,-8.22042a11.07179,14.00613 0 0 0 -6.343,-0.83775s2.6386,-3.7437 7.83303,0.06545c0,0 4.86331,-2.32999 5.69111,-2.02893c0,0 -4.7081,-4.67307 -8.60909,-5.49773c0,0 4.6874,-1.68859 10.01635,5.23594l5.37034,-0.69376s-5.96014,-6.54492 -9.3955,-7.65756c0,0 4.99783,-0.78539 10.77171,7.61829l5.2979,0.28798s-4.79088,-6.17841 -8.41249,-8.39059c0,0 4.75984,0.52359 9.93357,8.54767l3.51814,0.71994s-3.58022,-4.37201 -4.69775,-5.49773s-0.96231,-1.62314 -0.96231,-1.62314a16.96985,21.46735 0 0 1 7.12941,7.48739s7.19149,1.98966 7.3674,1.49224z"/>
   <path stroke="null" id="svg_86" opacity="0.1" fill="#6c63ff" d="m963.98135,130.93312s-12.62391,-47.26743 -36.43344,-28.69294c0,0 -4.86331,1.30898 -5.24617,7.4743c0,0 1.91428,-0.89011 2.76277,4.08403a18.62544,23.56172 0 0 0 1.4176,5.11813a8.96091,11.33581 0 0 0 3.97343,5.09195l0,0s8.40214,10.79912 26.77925,7.22559c0,0 4.85296,1.85876 5.74285,1.21736l-5.17373,-6.42711s-3.58022,4.93487 -7.94686,4.73852c0,0 7.89512,-4.34583 7.24323,-5.74644c-0.13452,-0.27489 -2.83521,-3.24628 -2.83521,-3.24628s-6.27057,8.54767 -12.99642,7.98481c0,0 9.94392,-3.58662 11.97202,-9.16289l-4.28385,-4.17566s-6.27057,9.45087 -13.95873,9.16289c0,0 10.34747,-4.20184 12.96538,-10.01373l-4.65636,-3.39027s-6.20848,9.07126 -12.64461,8.78329c0,0 11.50638,-6.37475 11.53743,-9.46396c0,0 -4.41837,-2.78814 -5.87736,-2.81432c0,0 -4.61497,6.37475 -8.27797,5.7988c0,0 7.32601,-5.30139 7.01558,-6.38784c0,0 -6.51891,-1.68859 -10.19226,-0.32725a20.16722,25.51211 0 0 1 10.34747,-0.98174a11.16492,14.12394 0 0 0 -4.85296,-5.23594s3.84926,-1.19118 6.42578,5.6679c0,0 5.04956,1.58387 5.58763,2.40853c0,0 -1.77976,-7.2125 -4.62532,-10.6944c0,0 4.62532,1.97657 5.88771,11.54524l4.73914,3.27246s-1.95567,-9.69957 -4.31489,-13.08984c0,0 4.48045,2.93213 5.45312,13.99304l4.24246,4.04476s-1.17961,-8.53458 -3.16633,-12.95895c0,0 3.6837,3.84841 4.34594,14.1763l2.57652,3.11538s-0.95197,-6.20459 -1.34517,-7.95863s-0.07243,-1.87185 -0.07243,-1.87185a17.06298,21.58515 0 0 1 2.51443,11.28345s5.00817,6.79363 5.37034,6.45329z"/>
   <path stroke="null" id="svg_87" opacity="0.1" fill="#6c63ff" d="m881.59481,133.26312s-39.21691,-5.52391 -35.97815,29.67468c0,0 -1.16926,6.09987 3.10424,9.16289c0,0 0.17591,-2.61797 4.13899,-1.43988a19.03934,24.08531 0 0 0 4.26316,0.53668a8.89882,11.25727 0 0 0 5.32895,-2.39544l0,0s11.28909,-5.06577 16.55595,-27.64575c0,0 3.37327,-4.77779 3.30084,-6.07369l-6.77759,3.16774s2.06949,6.1915 0,11.11328c0,0 0.2173,-10.87766 -1.03475,-10.70749c-0.25869,0 -3.52849,1.88494 -3.52849,1.88494s3.47675,10.79912 0.22764,18.32578c0,0 1.6349,-12.93277 -1.47969,-17.59275l-4.81157,3.14156s4.13899,11.19182 0.67259,19.88347c0,0 1.34517,-13.58726 -1.68664,-19.09808l-4.39767,3.92695s3.84926,11.00856 0.94162,18.22106c0,0 0.30008,-15.89107 -1.90393,-17.23933c0,0 -3.86995,3.92695 -4.50115,5.55009c0,0 2.61791,7.98481 0.64154,11.97721c0,0 -0.69328,-10.64204 -1.60386,-10.74676c0,0 -3.97343,6.76745 -4.55289,11.54524a20.14652,25.48593 0 0 1 3.6837,-12.27827a11.13388,14.08467 0 0 0 -5.79458,3.33791s0.76571,-4.90869 6.76724,-4.96105c0,0 3.25945,-5.11813 4.13899,-5.39302c0,0 -5.9291,-1.00792 -9.62315,0.78539c0,0 3.36293,-4.47673 10.75102,-1.87185l4.35628,-4.04476s-7.87442,-2.01584 -11.20631,-0.70685c0,0 3.99412,-3.92695 12.33418,-0.32725l4.6874,-3.15465s-6.61203,-2.25145 -10.6165,-1.84567c0,0 4.31489,-2.61797 11.98237,1.00792l3.33188,-1.63623s-4.85296,-1.53151 -6.28091,-1.81949s-1.47969,-0.78539 -1.47969,-0.78539a17.02159,21.53279 0 0 1 9.14716,1.88494s6.97419,-2.81432 6.90176,-3.36409z"/>
   <path stroke="null" id="svg_88" opacity="0.1" fill="#6c63ff" d="m1224.71686,518.32708s-39.19621,-5.52391 -35.95745,29.63541c0,0 -1.16926,6.09987 3.10424,9.16289c0,0 0.17591,-2.61797 4.13899,-1.45297a17.90112,22.64543 0 0 0 4.26316,0.53668a8.82639,11.16564 0 0 0 5.32895,-2.39544l0,0s11.28909,-5.06577 16.50421,-27.63266c0,0 3.37327,-4.79088 3.30084,-6.07369l-6.77759,3.15465s2.06949,6.20459 0,11.12637c0,0 0.2173,-10.89075 -1.03475,-10.70749c-0.25869,0 -3.52849,1.87185 -3.52849,1.87185s3.47675,10.79912 0.22764,18.32578c0,0 1.6349,-12.91968 -1.47969,-17.59275l-4.81157,3.15465s4.13899,11.19182 0.68293,19.88347c0,0 1.33482,-13.58726 -1.69698,-19.11117l-4.39767,3.92695s3.84926,11.00856 0.94162,18.20797c0,0 0.30008,-15.89107 -1.90393,-17.22624c0,0 -3.85961,3.92695 -4.50115,5.55009c0,0 2.62826,7.98481 0.64154,11.97721c0,0 -0.69328,-10.64204 -1.60386,-10.74676c0,0 -3.97343,6.76745 -4.55289,11.54524a20.14652,25.48593 0 0 1 3.6837,-12.27827a11.04075,13.96686 0 0 0 -5.79458,3.33791s0.76571,-4.92178 6.76724,-4.97414c0,0 3.2698,-5.11813 4.13899,-5.37993c0,0 -5.9291,-1.02101 -9.62315,0.7723c0,0 3.36293,-4.46364 10.76137,-1.85876l4.34594,-4.04476s-7.7813,-1.85876 -11.16492,-0.57595c0,0 3.99412,-3.92695 12.33418,-0.34034l4.6874,-3.14156s-6.61203,-2.25145 -10.6165,-1.84567c0,0 4.31489,-2.61797 11.98237,1.00792l3.33188,-1.64932s-4.85296,-1.53151 -6.28091,-1.8064s-1.47969,-0.78539 -1.47969,-0.78539a16.9595,21.45426 0 0 1 9.14716,1.87185s6.99489,-2.86668 6.89141,-3.42954z"/>
   <path stroke="null" id="svg_89" opacity="0.1" fill="#6c63ff" d="m1284.63905,564.63895s-39.19621,-5.51082 -35.95745,29.63541c0,0 -1.15892,6.09987 3.10424,9.16289c0,0 0.17591,-2.61797 4.13899,-1.43988a18.26328,23.10358 0 0 0 4.25281,0.52359a8.94021,11.30963 0 0 0 5.30825,-2.38235l0,0s11.27874,-5.06577 16.49386,-27.64575c0,0 3.38362,-4.77779 3.30084,-6.07369l-6.77759,3.15465s2.06949,6.20459 0,11.12637c0,0 0.2173,-10.87766 -1.03475,-10.70749c-0.25869,0 -3.52849,1.87185 -3.52849,1.87185s3.47675,10.79912 0.22764,18.32578c0,0 1.6349,-12.91968 -1.47969,-17.57966l-4.81157,3.14156s4.13899,11.19182 0.68293,19.88347c0,0 1.33482,-13.58726 -1.69698,-19.09808l-4.39767,3.92695s3.84926,11.00856 0.95197,18.22106c0,0 0.28973,-15.90416 -1.91428,-17.23933c0,0 -3.85961,3.92695 -4.50115,5.55009c0,0 2.62826,7.98481 0.64154,11.97721c0,0 -0.69328,-10.64204 -1.60386,-10.74676c0,0 -3.97343,6.76745 -4.54254,11.54524a20.19826,25.55138 0 0 1 3.67335,-12.27827a11.13388,14.08467 0 0 0 -5.79458,3.33791s0.77606,-4.92178 6.77759,-4.96105c0,0 3.25945,-5.11813 4.13899,-5.39302c0,0 -5.9291,-1.00792 -9.62315,0.78539c0,0 3.36293,-4.47673 10.76137,-1.87185l4.34594,-4.04476s-7.7813,-1.85876 -11.16492,-0.57595c0,0 3.99412,-3.92695 12.33418,-0.32725l4.6874,-3.15465s-6.61203,-2.25145 -10.6165,-1.84567c0,0 4.31489,-2.61797 11.98237,1.00792l3.33188,-1.63623s-4.85296,-1.53151 -6.27057,-1.81949s-1.49004,-0.78539 -1.49004,-0.78539a17.02159,21.53279 0 0 1 9.14716,1.88494s7.02593,-2.89286 6.92246,-3.45572z"/>
   <path stroke="null" id="svg_90" opacity="0.1" fill="#6c63ff" d="m1151.60165,174.54849s-31.58047,-29.88412 -42.86956,2.48707c0,0 -3.44571,4.516 -0.97266,9.9221c0,0 1.17961,-2.10747 4.13899,1.38752a18.11842,22.92032 0 0 0 3.45605,3.19392a8.88848,11.24418 0 0 0 5.55659,1.30898l0,0s11.75472,2.86668 25.29956,-13.24692c0,0 4.82192,-1.96348 5.27721,-3.11538l-7.10871,-1.62314s-0.74502,6.63655 -4.41837,9.60795c0,0 4.54254,-9.24143 3.36293,-9.90901c-0.23799,-0.14399 -3.78717,-0.65449 -3.78717,-0.65449s-1.33482,11.54524 -7.12941,15.90416c0,0 6.59134,-10.09227 5.77389,-16.1136l-5.41173,-0.36652s-0.92092,12.29136 -7.37775,17.57966c0,0 6.60168,-10.85148 6.20848,-17.55348l-5.35999,0.54977s-1.03475,11.95103 -6.47752,16.29686c0,0 6.62238,-13.50872 5.25651,-16.07433c0,0 -4.89435,0.87702 -6.10501,1.89803c0,0 -0.93127,8.56076 -4.24246,10.73367c0,0 3.663,-9.62104 2.91799,-10.28862c0,0 -6.13605,3.28555 -8.54701,7.02925a20.20861,25.56447 0 0 1 8.09172,-8.22042a11.14422,14.09776 0 0 0 -6.33265,-0.83775s2.6386,-3.7437 7.83303,0.06545c0,0 4.85296,-2.3169 5.68076,-2.02893c0,0 -4.7081,-4.67307 -8.60909,-5.48464c0,0 4.69775,-1.70168 10.0267,5.23594l5.37034,-0.69376s-5.96014,-6.54492 -9.3955,-7.64447c0,0 4.99783,-0.79848 10.76137,7.6052l5.30825,0.30107s-4.80123,-6.17841 -8.41249,-8.40368c0,0 4.75984,0.52359 9.92322,8.54767l3.52849,0.71994s-3.56988,-4.42437 -4.6874,-5.57627s-0.95197,-1.53151 -0.95197,-1.53151a17.01124,21.5197 0 0 1 7.11906,7.48739s7.1708,2.04202 7.30531,1.50533z"/>
   <path stroke="null" id="svg_91" opacity="0.1" fill="#6c63ff" d="m1176.00098,390.29531s-10.88554,-47.9481 -35.36765,-30.73496c0,0 -4.9047,0.95556 -5.5152,7.16015c0,0 1.94532,-0.7723 2.61791,4.24111a18.34606,23.20829 0 0 0 1.2417,5.23594a8.88848,11.24418 0 0 0 3.78717,5.34066l0,0s8.00894,11.25727 26.48952,8.74402c0,0 4.78053,2.12055 5.69111,1.5446l-4.89435,-6.72818s-3.75613,4.73852 -8.10207,4.29347c0,0 8.02964,-3.92695 7.40879,-5.32757c-0.12417,-0.28798 -2.71104,-3.41645 -2.71104,-3.41645s-6.5603,8.19424 -13.26545,7.23868c0,0 10.06809,-3.01066 12.28245,-8.42986l-4.13899,-4.42437s-6.60168,9.08435 -14.26916,8.3775c0,0 10.43025,-3.62589 13.30684,-9.26761l-4.53219,-3.65207s-6.57064,8.70475 -12.94468,8.05025c0,0 11.72368,-5.72026 11.86855,-8.79638c0,0 -4.32524,-3.03684 -5.78423,-3.14156c0,0 -4.83227,6.09987 -8.50562,5.31448c0,0 7.51226,-4.88251 7.24323,-5.98206c0,0 -6.45682,-2.05511 -10.17156,-0.91629a20.18791,25.53829 0 0 1 10.34747,-0.37961a11.10283,14.0454 0 0 0 -4.65636,-5.49773s3.89065,-0.98174 6.20848,6.02133c0,0 4.97713,1.85876 5.49451,2.72269c0,0 -1.52108,-7.31722 -4.24246,-10.94311c0,0 4.55289,2.22527 5.47381,11.8594l4.61497,3.54735s-1.61421,-9.81738 -3.84926,-13.2731c0,0 4.36663,3.18083 4.95644,14.28102l4.13899,4.28038s-0.87953,-8.58694 -2.70069,-13.08984c0,0 3.54918,4.05785 3.83891,14.39883l2.4627,3.27246s-0.72432,-6.25695 -1.03475,-8.03716s0,-2.02893 0,-2.02893a16.9595,21.45426 0 0 1 2.12123,11.41434s4.71845,7.04234 5.09095,6.72818z"/>
   <path stroke="null" id="svg_92" opacity="0.1" fill="#6c63ff" d="m933.43562,498.33889s-21.13988,-42.12312 -40.76903,-16.91208c0,0 -4.4908,2.61797 -3.70439,8.83565c0,0 1.70733,-1.43988 3.4664,3.14156a17.71487,22.40981 0 0 0 2.33853,4.52909a8.83674,11.17873 0 0 0 4.81157,3.76988l0,0s10.19226,7.95863 27.36905,-1.04719c0,0 5.05991,0.34034 5.80493,-0.53668l-6.20848,-4.71234s-2.55582,5.89043 -6.82933,7.00307c0,0 6.85002,-6.54492 5.9291,-7.74919c-0.17591,-0.23562 -3.36293,-2.30381 -3.36293,-2.30381s-4.48045,10.1839 -11.12353,11.66305c0,0 8.99195,-6.47947 9.92322,-12.47462l-4.95644,-2.76196s-4.31489,11.06092 -11.82716,13.08984c0,0 9.20925,-7.18632 10.70963,-13.62653l-5.17373,-1.88494s-4.36663,10.6944 -10.62685,12.33063c0,0 9.97496,-9.66031 9.42654,-12.67097c0,0 -4.82192,-1.37443 -6.20848,-0.95556c0,0 -3.28015,7.57902 -6.98454,8.12879c0,0 6.1257,-7.35649 5.61868,-8.32514c0,0 -6.65342,0.32725 -9.96461,2.74887a20.13617,25.47284 0 0 1 9.87148,-4.05785a11.10283,14.0454 0 0 0 -5.68076,-3.62589s3.50779,-2.3169 7.24323,3.57353c0,0 5.17373,0 5.88771,0.65449c0,0 -3.10424,-6.54492 -6.50856,-8.99272c0,0 4.86331,0.52359 7.88477,9.43778l5.22547,1.75404s-3.73544,-8.83565 -6.64307,-11.36199c0,0 4.89435,1.49224 7.92616,11.95103l4.88401,2.61797s-2.75243,-7.91936 -5.5152,-11.62378c0,0 4.30455,2.61797 6.88107,12.44844l3.10424,2.26454s-2.06949,-5.74644 -2.80416,-7.33031s-0.44494,-1.95039 -0.44494,-1.95039a16.96985,21.46735 0 0 1 4.56323,10.19699s6.18779,5.20976 6.46717,4.7647z"/>
   <path stroke="null" id="svg_93" fill="#6c63ff" d="m1072.37108,283.11566s-20.10513,-42.9216 -40.35513,-18.49595c0,0 -4.55289,2.48707 -3.91134,8.69166c0,0 1.72803,-1.38752 3.38362,3.25937a17.88043,22.61925 0 0 0 2.22471,4.63381a8.785,11.11328 0 0 0 4.71845,3.92695l0,0s9.98531,8.35132 27.3794,0c0,0 5.04956,0.53668 5.81528,-0.31416l-6.07396,-4.94796s-2.69034,5.77262 -6.99489,6.72818c0,0 7.00524,-6.3224 6.1257,-7.51357c-0.18625,-0.24871 -3.31119,-2.4478 -3.31119,-2.4478s-4.72879,10.01373 -11.38222,11.23109c0,0 9.14716,-6.12605 10.21295,-12.06884l-4.88401,-2.90595s-4.58393,10.90384 -12.14793,12.64479c0,0 9.38515,-6.81981 11.04075,-13.19456l-5.11165,-2.09438s-4.63567,10.47188 -10.92693,11.91176c0,0 10.2026,-9.26761 9.72662,-12.29136c0,0 -4.78053,-1.57078 -6.20848,-1.20427c0,0 -3.4664,7.44812 -7.18114,7.85391c0,0 6.30161,-7.0947 5.82562,-8.08952c0,0 -6.66377,0.06545 -10.0267,2.35617a20.19826,25.55138 0 0 1 9.96461,-3.66516a11.12353,14.07158 0 0 0 -5.59798,-3.84841s3.56988,-2.186 7.24323,3.84841c0,0 5.17373,0.22253 5.86701,0.89011c0,0 -2.92833,-6.54492 -6.28091,-9.24143c0,0 4.84262,0.70685 7.64678,9.73884l5.17373,1.96348s-3.50779,-8.97963 -6.36369,-11.62378c0,0 4.86331,1.68859 7.63643,12.25209l4.81157,2.8405s-2.55582,-8.02407 -5.17373,-11.78086c0,0 4.23211,2.78814 6.58099,12.71024l3.03181,2.38235s-1.94532,-5.82498 -2.62826,-7.43503s-0.3932,-1.96348 -0.3932,-1.96348a17.00089,21.50661 0 0 1 4.31489,10.36716s5.9291,5.32757 6.22918,4.8956z"/>
   <path stroke="null" id="svg_94" fill="#6c63ff" d="m945.16965,373.37014s1.03475,-49.87231 -26.355,-42.84306c0,0 -4.9047,-0.95556 -6.97419,4.72543c0,0 2.06949,0 1.49004,5.03959a18.17015,22.98577 0 0 0 -0.06208,5.4192a8.84709,11.19182 0 0 0 2.32818,6.54492l0,0s4.93574,13.7967 23.15763,18.48286c0,0 4.04586,3.8615 5.05991,3.65207l-3.10424,-8.27278s-4.7081,3.06302 -8.75396,0.98174c0,0 8.5884,-0.6414 8.35041,-2.23836c0,-0.32725 -1.77976,-4.30656 -1.77976,-4.30656s-8.21589,5.30139 -14.37263,1.81949c0,0 10.34747,0.98174 13.73109,-3.32482l-2.88694,-5.7988s-8.46423,6.12605 -15.60398,2.51325c0,0 10.8131,0.54977 14.9107,-3.73061l-3.44571,-5.23594s-8.35041,5.78571 -14.26916,2.72269c0,0 12.54113,-0.95556 13.45171,-3.84841c0,0 -3.39397,-4.54218 -4.75984,-5.23594c0,0 -6.06362,3.92695 -9.37481,1.8064c0,0 8.27797,-1.75404 8.32971,-2.91904c0,0 -5.66007,-4.43746 -9.47828,-4.7647a20.14652,25.48593 0 0 1 9.98531,3.6128a11.12353,14.07158 0 0 0 -3.10424,-7.02925s3.94239,0.56286 4.48045,8.1157c0,0 4.31489,3.69134 4.59428,4.71234c0,0 0.30008,-7.55284 -1.42795,-12.05575c0,0 3.80787,3.8615 2.37992,13.39091l3.54918,5.1574s0.8071,-9.97446 -0.48633,-14.12394c0,0 3.39397,4.69925 1.30378,15.51147l2.86625,5.64172s1.221,-8.52149 0.56911,-13.5349c0,0 2.40061,5.23594 0.20695,15.19731l1.57282,4.05785s0.79676,-6.24386 0.90023,-8.06334s0.49668,-1.9373 0.49668,-1.9373a16.99054,21.49353 0 0 1 -0.71398,11.68923s2.78347,8.6393 3.23876,8.46913z"/>
   <ellipse stroke="null" transform="matrix(1.034746847945993,0,0,1.3089844738864036,-9741.2259996998,-9159.055233999865) " id="svg_95" opacity="0.1" fill="#6c63ff" ry="4.55" rx="26.93" cy="7761.87591" cx="10371.30599"/>
   <ellipse stroke="null" transform="matrix(1.034746847945993,0,0,1.3089844738864036,-9741.2259996998,-9159.055233999865) " id="svg_96" opacity="0.1" fill="#6c63ff" ry="4.55" rx="26.93" cy="7830.95591" cx="10273.13599"/>
   <ellipse stroke="null" transform="matrix(1.034746847945993,0,0,1.3089844738864036,-9741.2259996998,-9159.055233999865) " id="svg_97" opacity="0.1" fill="#6c63ff" ry="4.55" rx="26.93" cy="7795.56591" cx="9765.47599"/>
   <ellipse stroke="null" transform="matrix(1.034746847945993,0,0,1.3089844738864036,-9741.2259996998,-9159.055233999865) " id="svg_98" opacity="0.1" fill="#6c63ff" ry="4.55" rx="26.93" cy="7826.40591" cx="10477.39599"/>
   <ellipse stroke="null" transform="matrix(1.034746847945993,0,0,1.3089844738864036,-9741.2259996998,-9159.055233999865) " id="svg_99" fill="#6c63ff" ry="6.8" rx="40.21" cy="7768.67591" cx="10505.43599"/>
   <path stroke="null" id="svg_100" fill="#6c63ff" d="m1146.49,995.45192a12.01341,15.19731 0 0 0 3.96308,-7.56593c0.51737,-3.01066 -0.49668,-6.61037 -2.76277,-7.70992c-2.54548,-1.23045 -5.26686,0.99483 -7.33636,3.24628s-4.41837,4.83015 -7.11906,4.35892a10.86484,13.74434 0 0 0 3.35258,-12.84114a4.25281,5.37993 0 0 0 -0.93127,-2.61797c-1.4176,-1.91112 -3.97343,-1.08646 -5.67041,0.41888c-5.38068,4.79088 -6.88107,14.03231 -6.91211,22.35745c-0.53807,-2.99757 -0.08278,-6.12605 -0.09313,-9.16289s-0.68293,-6.54492 -2.74208,-8.14188a8.18485,10.35407 0 0 0 -4.13899,-1.30898c-2.42131,-0.10472 -5.122,0.19635 -6.76724,2.43471c-2.06949,2.77505 -1.52108,7.44812 0.25869,10.47188s4.50115,4.97414 7.00524,7.0947a15.65572,19.80494 0 0 1 5.00817,6.03442a4.86331,6.15223 0 0 1 0.36216,1.07337l15.16939,0a41.84516,52.93533 0 0 0 9.35411,-8.14188z"/>
   <path stroke="null" id="svg_101" fill="#a8a8a8" d="m344.86127,1017.53449s15.88336,-0.61522 20.69494,-4.93487s24.45107,-9.46396 25.64103,-2.53943s23.88196,34.4132 5.93945,34.59646s-41.68995,-3.53426 -46.47048,-7.22559s-5.80493,-19.89656 -5.80493,-19.89656z"/>
   <path stroke="null" id="svg_102" opacity="0.2" d="m397.43676,1042.24811c-17.94251,0.18326 -41.68995,-3.53426 -46.47048,-7.22559c-3.64231,-2.80123 -5.09095,-12.86732 -5.57729,-17.51421l-0.52772,0s1.03475,16.21832 5.78423,19.89656s28.52797,7.40885 46.47048,7.22559c5.17373,0 6.96385,-2.38235 6.87072,-5.83807c-0.72432,2.10747 -2.70069,3.41645 -6.54995,3.45572z"/>
  </g>
  <text font-style="normal" font-weight="normal" stroke="#000" transform="matrix(1.874005055526892,0,0,1.4827123183984932,-768.7362472082657,-362.7024917800052) " xml:space="preserve" text-anchor="start" font-family="'Calistoga'" font-size="24" id="svg_104" y="736.34888" x="885.13871" stroke-width="0" fill="#572bdb">Opps!</text>
  <text stroke="#000" transform="matrix(1.772505150673912,0,0,1.7275206184604581,-640.8228404607828,-565.5793212571832) " font-style="normal" font-weight="normal" xml:space="preserve" text-anchor="start" font-family="'Rounded Mplus 1c Thin'" font-size="24" id="svg_105" y="796.77102" x="806.56417" stroke-width="0" fill="#572bdb">Record Not Found!</text>
 </g>
</svg>